<svg xmlns="http://www.w3.org/2000/svg" width="25.273" height="22.341" viewBox="0 0 25.273 22.341">
  <g id="Grupo_2744" data-name="Grupo 2744" transform="translate(-8.6 -13.4)">
    <path id="Caminho_2141" data-name="Caminho 2141" d="M30.544,13.4H11.927A3.334,3.334,0,0,0,8.6,16.727V32.414a3.334,3.334,0,0,0,3.327,3.327H30.544a3.334,3.334,0,0,0,3.329-3.327V16.727A3.334,3.334,0,0,0,30.544,13.4ZM11.927,15.171H30.544A1.562,1.562,0,0,1,32.1,16.727v2.956H10.371v-2.96a1.562,1.562,0,0,1,1.557-1.553Zm18.617,18.8H11.927a1.562,1.562,0,0,1-1.557-1.557V21.487H32.1V32.414A1.562,1.562,0,0,1,30.544,33.97Z" fill="#004fff"/>
    <path id="Caminho_2142" data-name="Caminho 2142" d="M25.351,49.4H22.085a.885.885,0,0,0,0,1.771h3.266a.885.885,0,1,0,0-1.771Z" transform="translate(-8.755 -25.012)" fill="#004fff"/>
  </g>
</svg>
