<?xml version="1.0" encoding="utf-8"?>
<!-- Generator: Adobe Illustrator 22.1.0, SVG Export Plug-In . SVG Version: 6.00 Build 0)  -->
<svg version="1.1" id="Camada_1" xmlns="http://www.w3.org/2000/svg" xmlns:xlink="http://www.w3.org/1999/xlink" x="0px" y="0px"
	 viewBox="0 0 26 16.538" style="enable-background:new 0 0 26 16.538;" xml:space="preserve">
<style type="text/css">
	.st0{fill:#004FFF;}
</style>
<g>
	<path class="st0" d="M5.414,7.491H3.289c-0.318,0-0.576,0.258-0.576,0.576c0,0.318,0.258,0.576,0.576,0.576h2.125
		c0.318,0,0.576-0.258,0.576-0.576C5.99,7.748,5.732,7.491,5.414,7.491z"/>
	<path class="st0" d="M5.414,10.169H3.289c-0.318,0-0.576,0.258-0.576,0.576c0,0.318,0.258,0.576,0.576,0.576h2.125
		c0.318,0,0.576-0.258,0.576-0.576C5.99,10.427,5.732,10.169,5.414,10.169z"/>
	<path class="st0" d="M9.514,7.491c-0.005,0-0.01,0-0.015,0H7.356c-0.318,0-0.576,0.258-0.576,0.576
		c0,0.318,0.258,0.576,0.576,0.576h2.125c0.317-0.001,0.574-0.258,0.575-0.575C10.065,7.758,9.823,7.5,9.514,7.491z"/>
	<path class="st0" d="M9.499,10.169H7.356c-0.318,0-0.576,0.258-0.576,0.576c0,0.318,0.258,0.576,0.576,0.576h2.125
		c0.317-0.001,0.574-0.258,0.575-0.575c0.009-0.309-0.233-0.566-0.542-0.576C9.509,10.17,9.504,10.17,9.499,10.169z"/>
	<path class="st0" d="M14.144,8.066c0-0.318-0.258-0.576-0.576-0.576h-2.125c-0.318,0-0.576,0.258-0.576,0.576
		c0,0.318,0.258,0.576,0.576,0.576h2.125C13.886,8.642,14.144,8.384,14.144,8.066z"/>
	<circle class="st0" cx="3.924" cy="2.947" r="0.873"/>
	<circle class="st0" cx="12.931" cy="2.947" r="0.873"/>
	<path class="st0" d="M13.568,10.169h-2.125c-0.318,0-0.576,0.258-0.576,0.576c0,0.318,0.258,0.576,0.576,0.576h2.125
		c0.158,0,0.3-0.064,0.404-0.167c-0.015-0.177-0.027-0.355-0.027-0.536c0-0.098,0.01-0.193,0.015-0.29
		C13.857,10.231,13.72,10.169,13.568,10.169z"/>
	<path class="st0" d="M14.479,13.721h-12.1c-0.559-0.001-1.012-0.453-1.014-1.012v-7.1h14.126v0.895
		c0.339-0.389,0.724-0.737,1.149-1.033V2.512c-0.003-1.193-0.968-2.159-2.161-2.163h-12.1C1.185,0.35,0.217,1.317,0.214,2.512v10.2
		c0.003,1.193,0.97,2.16,2.163,2.163h12.1c0.339-0.001,0.655-0.086,0.94-0.225c-0.256-0.304-0.483-0.633-0.678-0.982
		C14.654,13.691,14.571,13.72,14.479,13.721z M1.365,2.512c0.002-0.558,0.454-1.01,1.012-1.012h0.002h12.1
		c0.558,0.002,1.01,0.454,1.012,1.012v1.924H1.365V2.512z"/>
	<path class="st0" d="M22.432,10.1l-3.317-1.92c-0.095-0.053-0.202-0.08-0.311-0.079v0c-0.325,0.011-0.583,0.279-0.58,0.605v3.827
		c-0.003,0.331,0.262,0.603,0.594,0.606c0.104,0.001,0.206-0.025,0.297-0.075l3.317-1.919c0.289-0.163,0.39-0.529,0.228-0.817
		C22.606,10.232,22.527,10.153,22.432,10.1z"/>
	<path class="st0" d="M20.214,5.046c-3.077,0-5.572,2.495-5.572,5.572s2.495,5.572,5.572,5.572s5.572-2.495,5.572-5.572
		C25.783,7.542,23.29,5.049,20.214,5.046z M20.222,15.398c-2.638,0.002-4.778-2.134-4.78-4.772c0-0.003,0-0.005,0-0.008
		c-0.003-2.634,2.13-4.773,4.764-4.776c0.003,0,0.005,0,0.008,0v0.004c2.638-0.002,4.778,2.134,4.78,4.772
		C24.996,13.255,22.86,15.395,20.222,15.398z"/>
</g>
</svg>
