<svg id="Group_4755" data-name="Group 4755" xmlns="http://www.w3.org/2000/svg" viewBox="0 0 20 20">
  <defs>
    <style>
      .cls-1 {
        fill: #403f4c;
      }
    </style>
  </defs>
  <title>icon_menu_coordinator</title>
  <g>
    <path class="cls-1" d="M8.919,10.215a.441.441,0,0,0,.388.23H10.93a.439.439,0,0,0,0-.878H9.477A4.532,4.532,0,0,1,8.919,10.215Z"/>
    <path class="cls-1" d="M11.367,7.965v0a.438.438,0,0,0-.438-.438h-.663a4.428,4.428,0,0,1-.2.878h.86A.439.439,0,0,0,11.367,7.965Z"/>
    <polygon class="cls-1" points="10.45 4.148 10.449 4.149 10.449 4.149 10.45 4.151 10.45 4.148"/>
    <path class="cls-1" d="M10.449,4.149a.667.667,0,0,0-1.319-.2,4.46,4.46,0,0,1,.558.758A.669.669,0,0,0,10.449,4.149Z"/>
    <path class="cls-1" d="M15.531,10.445h1.62a.439.439,0,0,0,0-.878h-1.62a.162.162,0,0,0-.044,0,.44.44,0,0,0,.044.878Z"/>
    <path class="cls-1" d="M14.047,7.525H12.411a.439.439,0,0,0,0,.878h1.626a.441.441,0,0,0,.44-.442V7.953A.43.43,0,0,0,14.047,7.525Z"/>
    <path class="cls-1" d="M15.531,8.4h1.622a.439.439,0,0,0,0-.878H15.531a.439.439,0,0,0,0,.878Z"/>
    <path class="cls-1" d="M17.341,4.054a.667.667,0,1,0-.667.667A.667.667,0,0,0,17.341,4.054Z"/>
    <path class="cls-1" d="M14.479,10.005V10a.43.43,0,0,0-.43-.43H12.414a.439.439,0,0,0,0,.878h1.628v0A.441.441,0,0,0,14.479,10.005Z"/>
    <path class="cls-1" d="M17.852,2.067H8.609a1.642,1.642,0,0,0-1.317.659,4.574,4.574,0,0,1,.831.393.766.766,0,0,1,.486-.172h9.243a.774.774,0,0,1,.775.771V5.189H9.932a4.509,4.509,0,0,1,.282.894h8.411v5.424a.773.773,0,0,1-.771.771H10.881a5.606,5.606,0,0,1,.6.88h6.364A1.656,1.656,0,0,0,19.5,11.51V3.718A1.655,1.655,0,0,0,17.852,2.067Z"/>
    <path class="cls-1" d="M8.753,11.59A4.649,4.649,0,0,0,6.5,11.01H5.112A4.626,4.626,0,0,0,.5,15.619v.657a1.66,1.66,0,0,0,1.658,1.656H9.432A1.664,1.664,0,0,0,11.086,16.3V15.39a4.6,4.6,0,0,0-1.609-3.284A6.428,6.428,0,0,0,8.753,11.59Zm1.219,4.029v.657a.537.537,0,0,1-.537.538H2.161a.538.538,0,0,1-.539-.538v-.657a3.5,3.5,0,0,1,3.493-3.494H6.5a3.5,3.5,0,0,1,3.468,3.494Z"/>
    <path class="cls-1" d="M5.8,10.681h0A3.707,3.707,0,1,0,2.094,6.974,3.706,3.706,0,0,0,5.8,10.681Zm0-6.348h0v0A2.647,2.647,0,1,1,3.156,6.981,2.649,2.649,0,0,1,5.8,4.328Z"/>
  </g>
</svg>
