<svg id="Group_4755" data-name="Group 4755" xmlns="http://www.w3.org/2000/svg" viewBox="0 0 20 20">
  <defs>
    <style>
      .cls-1 {
        fill: #403f4c;
      }
    </style>
  </defs>
  <title>icon_menu_b2b</title>
  <path id="Path_8105" data-name="Path 8105" class="cls-1" d="M18,7.128a.5.5,0,0,0-.023-.227A1.7,1.7,0,0,0,16.3,5.477H13.754C13.606,3.614,12.46,2.81,10,2.81s-3.606.8-3.754,2.666H3.7A1.7,1.7,0,0,0,2.028,6.9a.5.5,0,0,0-.023.227.174.174,0,0,0,0,.049v8.311a1.7,1.7,0,0,0,1.7,1.7H16.3a1.7,1.7,0,0,0,1.7-1.7h0V7.178A.184.184,0,0,0,18,7.128ZM10,4.149c2.066,0,2.379.561,2.427,1.333H7.572C7.62,4.705,7.934,4.149,10,4.149ZM3.7,6.477H16.3a.7.7,0,0,1,.67.5L15.61,9.35a1.8,1.8,0,0,1-1.365.79H11.722V9.878a1.1,1.1,0,0,0-1.1-1.1H9.379a1.1,1.1,0,0,0-1.1,1.1h0v.262H5.756A1.8,1.8,0,0,1,4.39,9.35L3.032,6.982A.7.7,0,0,1,3.7,6.477Zm7.019,3.4V11.73a.1.1,0,0,1-.1.1H9.379a.1.1,0,0,1-.1-.1h0V9.872a.1.1,0,0,1,.1-.1h1.242a.1.1,0,0,1,.1.1ZM16.3,16.19H3.7a.7.7,0,0,1-.7-.7H3V8.935l.522.908a2.806,2.806,0,0,0,2.233,1.292H8.278v.59a1.1,1.1,0,0,0,1.1,1.1h1.243a1.1,1.1,0,0,0,1.1-1.1h0v-.59h2.522a2.806,2.806,0,0,0,2.233-1.292L17,8.935v6.554a.7.7,0,0,1-.7.7Z"/>
</svg>
