<svg id="Group_4755" data-name="Group 4755" xmlns="http://www.w3.org/2000/svg" viewBox="0 0 20 20">
  <defs>
    <style>
      .cls-1 {
        fill: #403f4c;
      }
    </style>
  </defs>
  <title>icon_menu_democlass</title>
  <g>
    <path class="cls-1" d="M3.87,15.2a1.424,1.424,0,0,1,.418-.122c.151-.02,12.994-.006,13.119-.006h.214a.68.68,0,0,0,.679-.68V1.5a.68.68,0,0,0-.679-.679H4.431A2.738,2.738,0,0,0,1.7,3.552v12.9a2.738,2.738,0,0,0,2.731,2.731h13.19a.68.68,0,0,0,0-1.359H4.431a1.375,1.375,0,0,1-1.373-1.373A1.4,1.4,0,0,1,3.87,15.2Zm-.811-1.128V3.552A1.376,1.376,0,0,1,4.431,2.18h12.51V13.721H4.431a2.715,2.715,0,0,0-1.091.231Z"/>
    <path class="cls-1" d="M7.7,9.436c.283.283.553.589.849.857a.87.87,0,0,0,.623.251.856.856,0,0,0,.453-.183,5.352,5.352,0,0,0,.544-.542l.991-.99,1.392-1.39L13.77,6.225l.584-.582a.777.777,0,0,0,.237-.567.744.744,0,0,0-.234-.525.8.8,0,0,0-.536-.207.749.749,0,0,0-.526.233L9.087,8.786,7.652,7.353a.711.711,0,0,0-.489-.194H7.134a.719.719,0,0,0-.458,1.248Z"/>
  </g>
</svg>
