<svg id="Group_4755" data-name="Group 4755" xmlns="http://www.w3.org/2000/svg" viewBox="0 0 20 20">
  <defs>
    <style>
      .cls-1 {
        fill: #403f4c;
      }
    </style>
  </defs>
  <title>icon_menu_settings</title>
  <g>
    <path class="cls-1" d="M17.324,8.208h0c-.266-.04-.543-.079-.82-.115a6.756,6.756,0,0,0-.556-1.34c.1-.134.205-.271.306-.406l.193-.257a1.092,1.092,0,0,0-.107-1.416L15.326,3.661a1.09,1.09,0,0,0-1.416-.1q-.327.242-.662.5a6.76,6.76,0,0,0-1.34-.556c-.036-.276-.075-.552-.115-.823a1.087,1.087,0,0,0-1.079-.923H9.283a1.089,1.089,0,0,0-1.076.926c-.04.268-.079.542-.115.821a6.7,6.7,0,0,0-1.341.554c-.149-.114-.3-.228-.449-.34l-.214-.161a1.091,1.091,0,0,0-1.415.108L3.658,4.673a1.091,1.091,0,0,0-.1,1.417c.162.218.329.441.5.66A6.731,6.731,0,0,0,3.5,8.092c-.275.036-.552.075-.822.116A1.088,1.088,0,0,0,1.75,9.286v1.43a1.089,1.089,0,0,0,.926,1.076c.266.041.543.08.82.116a6.773,6.773,0,0,0,.557,1.341c-.11.141-.217.285-.323.425l-.177.237a1.092,1.092,0,0,0,.107,1.416l1.012,1.011a1.1,1.1,0,0,0,1.416.106c.219-.162.44-.329.661-.5A6.7,6.7,0,0,0,8.09,16.5c.036.276.075.552.115.822a1.087,1.087,0,0,0,1.077.925h1.431a1.087,1.087,0,0,0,1.076-.926c.04-.268.079-.542.115-.821a6.682,6.682,0,0,0,1.341-.556c.175.134.352.266.524.4l.138.1a1.092,1.092,0,0,0,1.416-.108l1.012-1.011a1.091,1.091,0,0,0,.105-1.416c-.162-.219-.33-.442-.5-.661a6.708,6.708,0,0,0,.557-1.341c.275-.036.551-.075.82-.116a1.088,1.088,0,0,0,.932-1.077V9.285A1.088,1.088,0,0,0,17.324,8.208Zm-.334,2.373c-.249.036-.5.071-.747.1a1.085,1.085,0,0,0-.909.789,5.428,5.428,0,0,1-.52,1.253,1.087,1.087,0,0,0,.086,1.2c.159.2.316.412.465.613l-.818.818c-.2-.151-.409-.307-.613-.465a1.087,1.087,0,0,0-1.2-.085,5.48,5.48,0,0,1-1.253.52,1.086,1.086,0,0,0-.789.908c-.033.254-.069.513-.1.76H9.42q-.056-.38-.106-.759a1.081,1.081,0,0,0-.788-.909,5.5,5.5,0,0,1-1.254-.52,1.086,1.086,0,0,0-1.2.085c-.205.158-.411.314-.615.465l-.819-.816c.151-.2.306-.408.465-.612a1.087,1.087,0,0,0,.085-1.2,5.54,5.54,0,0,1-.52-1.254,1.084,1.084,0,0,0-.908-.789c-.253-.032-.511-.067-.76-.1V9.423q.38-.056.76-.105a1.085,1.085,0,0,0,.908-.788,5.465,5.465,0,0,1,.52-1.254,1.09,1.09,0,0,0-.089-1.2c-.158-.2-.314-.409-.465-.614l.821-.818c.2.151.41.307.614.465a1.089,1.089,0,0,0,1.2.085,5.487,5.487,0,0,1,1.252-.52,1.084,1.084,0,0,0,.79-.907c.033-.253.068-.51.1-.765h1.154c.037.252.073.5.106.758a1.083,1.083,0,0,0,.788.909,5.548,5.548,0,0,1,1.254.52,1.085,1.085,0,0,0,1.2-.086c.2-.157.409-.313.613-.464l.818.818c-.152.2-.307.41-.465.613a1.086,1.086,0,0,0-.085,1.2,5.541,5.541,0,0,1,.519,1.251,1.084,1.084,0,0,0,.907.79c.254.033.512.068.761.105Z"/>
    <path class="cls-1" d="M10,6.107h0A3.9,3.9,0,1,0,13.894,10,3.907,3.907,0,0,0,10,6.107Zm0,6.631a2.738,2.738,0,0,1-.01-5.475H10a2.738,2.738,0,0,1,0,5.475Z"/>
  </g>
</svg>
