<svg id="Group_4755" data-name="Group 4755" xmlns="http://www.w3.org/2000/svg" viewBox="0 0 20 20">
  <defs>
    <style>
      .cls-1 {
        fill: #403f4c;
      }
    </style>
  </defs>
  <title>icon_menu_plans</title>
  <path class="cls-1" d="M10,2a8,8,0,1,0,8,8A8,8,0,0,0,10,2ZM8.3,9.649a22.1,22.1,0,0,1,.135-2.212A7.69,7.69,0,0,0,10,7.6a7.69,7.69,0,0,0,1.565-.161A21.816,21.816,0,0,1,11.7,9.649Zm3.4.7c-.012.79-.059,1.521-.136,2.185a7.665,7.665,0,0,0-3.135,0c-.076-.664-.125-1.4-.136-2.185Zm-.469-6.829a4.969,4.969,0,0,1,2.343,2.4,6.925,6.925,0,0,1-1.42.642A9.227,9.227,0,0,0,11.231,3.523Zm.238,3.22A7.136,7.136,0,0,1,10,6.9a7.136,7.136,0,0,1-1.472-.153c.342-2.19.987-3.485,1.472-3.485S11.128,4.553,11.469,6.743Zm-3.628-.18a6.925,6.925,0,0,1-1.42-.642,4.967,4.967,0,0,1,2.342-2.4A9.225,9.225,0,0,0,7.841,6.563Zm.921,9.911a4.975,4.975,0,0,1-2.35-2.418h0a6.949,6.949,0,0,1,1.429-.65A9.272,9.272,0,0,0,8.762,16.474ZM8.521,13.23a7.157,7.157,0,0,1,2.951,0c-.339,2.207-.984,3.512-1.475,3.512S8.862,15.436,8.521,13.23Zm2.708,3.247a9.273,9.273,0,0,0,.927-3.068,6.922,6.922,0,0,1,1.427.647,4.981,4.981,0,0,1-2.351,2.422Zm1.022-3.763a23.044,23.044,0,0,0,.151-2.363h2.083a9.259,9.259,0,0,1-.612,3.064h0A7.791,7.791,0,0,0,12.251,12.714Zm2.233-3.063H12.405a22.992,22.992,0,0,0-.155-2.389,7.85,7.85,0,0,0,1.613-.7,9.251,9.251,0,0,1,.625,3.087ZM11.557,2.976a7.19,7.19,0,0,1,3.424,1.839,7.241,7.241,0,0,1-.828.727A4.908,4.908,0,0,0,11.557,2.976ZM5.843,5.542a7.173,7.173,0,0,1-.83-.728A7.18,7.18,0,0,1,8.445,2.973,4.91,4.91,0,0,0,5.843,5.542Zm.288,1.021a7.85,7.85,0,0,0,1.613.7,22.992,22.992,0,0,0-.155,2.389H5.507A9.232,9.232,0,0,1,6.131,6.563Zm1.458,3.788a23.045,23.045,0,0,0,.152,2.363,7.768,7.768,0,0,0-1.619.7,9.262,9.262,0,0,1-.615-3.063ZM5.527,13.788a7.832,7.832,0,0,0-1.017.864,7.159,7.159,0,0,1-1.692-4.3H4.8A9.75,9.75,0,0,0,5.527,13.788Zm.3.647a4.915,4.915,0,0,0,2.627,2.6A7.167,7.167,0,0,1,5,15.17,7.189,7.189,0,0,1,5.83,14.435Zm8.331,0a7.178,7.178,0,0,1,.839.739,7.176,7.176,0,0,1-3.481,1.862A4.913,4.913,0,0,0,14.161,14.435Zm.3-.647a9.75,9.75,0,0,0,.728-3.44l1.989,0a7.157,7.157,0,0,1-1.7,4.305A7.691,7.691,0,0,0,14.465,13.788Zm2.717-4.137h-1.99a9.732,9.732,0,0,0-.737-3.461,7.691,7.691,0,0,0,1.014-.859A7.174,7.174,0,0,1,17.182,9.651ZM4.526,5.33a7.652,7.652,0,0,0,1.01.857A9.732,9.732,0,0,0,4.8,9.648H2.818A7.153,7.153,0,0,1,4.526,5.33Z"/>
</svg>
