<svg id="Group_4755" data-name="Group 4755" xmlns="http://www.w3.org/2000/svg" viewBox="0 0 20 20">
  <defs>
    <style>
      .cls-1 {
        fill: #403f4c;
      }
    </style>
  </defs>
  <title>icon_menu_custserv</title>
  <g>
    <path class="cls-1" d="M13.436,2.69A7.76,7.76,0,0,0,3.17,12.971L2.03,17.049a.749.749,0,0,0,.519.924.731.731,0,0,0,.2.027.748.748,0,0,0,.2-.027L7.034,16.83a7.761,7.761,0,1,0,6.4-14.14ZM14.661,14.2h.007a6.258,6.258,0,0,1-7.246,1.17c-.013-.006-.026-.008-.039-.014a.61.61,0,0,0-.084-.033c-.021-.006-.042-.009-.063-.014a.631.631,0,0,0-.15-.015c-.024,0-.049,0-.073,0a.705.705,0,0,0-.08.015.1.1,0,0,0-.048.008l-3.054.854.855-3.059a.11.11,0,0,1,.008-.05q.006-.037.009-.078v-.07c0-.025,0-.05,0-.074a.359.359,0,0,0-.012-.073.7.7,0,0,0-.016-.069.57.57,0,0,0-.029-.076c-.011-.026-.01-.031-.017-.045A6.265,6.265,0,1,1,14.661,14.2Z"/>
    <path class="cls-1" d="M9.71,12.356H9.553a.647.647,0,0,0-.719.72v.2a.648.648,0,0,0,.719.72H9.71a.648.648,0,0,0,.719-.72v-.2a.647.647,0,0,0-.719-.72Z"/>
    <path class="cls-1" d="M11.342,5.492A3.027,3.027,0,0,0,9.853,5.12a3.164,3.164,0,0,0-1.242.246A3.06,3.06,0,0,0,7.6,6.055a.671.671,0,0,0,.084,1.069.643.643,0,0,0,.409.143A.879.879,0,0,0,8.689,7a1.715,1.715,0,0,1,1.164-.444,1.537,1.537,0,0,1,1.08.4,1.292,1.292,0,0,1,.433,1A1.362,1.362,0,0,1,10.885,9.1a2.014,2.014,0,0,1-1.272.372.689.689,0,0,0-.516.21.728.728,0,0,0-.2.523v.912a.721.721,0,0,0,.2.521.74.74,0,0,0,1.033,0,.721.721,0,0,0,.2-.521v-.445c0-.023.019-.044.059-.059a3.018,3.018,0,0,0,1.752-.84,2.488,2.488,0,0,0,.66-1.824,2.719,2.719,0,0,0-.395-1.435A2.841,2.841,0,0,0,11.342,5.492Z"/>
  </g>
</svg>
