<svg id="Group_4755" data-name="Group 4755" xmlns="http://www.w3.org/2000/svg" viewBox="0 0 20 20">
  <defs>
    <style>
      .cls-1 {
        fill: #403f4c;
      }
    </style>
  </defs>
  <title>icon_menu_notifications</title>
  <path id="Path_7997" data-name="Path 7997" class="cls-1" d="M7.132,15.546H8.641a1.359,1.359,0,1,0,2.717,0h1.509a2.868,2.868,0,0,1-5.736,0ZM18,13.432v.3a1.356,1.356,0,0,1-1.356,1.358H3.359A1.358,1.358,0,0,1,2,13.735v-.3a2.267,2.267,0,0,1,1.811-2.218V7.7a6.189,6.189,0,0,1,12.377,0v3.518A2.263,2.263,0,0,1,18,13.432Zm-1.509,0a.755.755,0,0,0-.754-.754h0a1.055,1.055,0,0,1-1.054-1.054V7.7a4.679,4.679,0,0,0-9.358,0v3.927a1.055,1.055,0,0,1-1.054,1.054.756.756,0,0,0-.758.754h0v.151H16.491Z"/>
</svg>
