<svg id="Group_4755" data-name="Group 4755" xmlns="http://www.w3.org/2000/svg" viewBox="0 0 20 20">
  <defs>
    <style>
      .cls-1 {
        fill: #403f4c;
      }
    </style>
  </defs>
  <title>icon_menu_myaccount</title>
  <path id="Path_846" data-name="Path 846" class="cls-1" d="M10,2a8,8,0,1,0,8,8A8,8,0,0,0,10,2ZM6.44,15.8A3.768,3.768,0,0,1,10,12.22a3.767,3.767,0,0,1,3.56,3.58A6.838,6.838,0,0,1,6.44,15.8ZM10,10.3A1.562,1.562,0,0,1,8.44,8.74,1.545,1.545,0,0,1,9.99,7.2H10a1.562,1.562,0,0,1,1.56,1.56,1.545,1.545,0,0,1-1.55,1.54Zm4.66,4.66a5.042,5.042,0,0,0-3.4-3.76,2.76,2.76,0,1,0-2.52,0,5.008,5.008,0,0,0-3.4,3.76,6.8,6.8,0,1,1,9.612-.292C14.858,14.768,14.76,14.866,14.66,14.96Z"/>
</svg>
