<svg id="Group_4755" data-name="Group 4755" xmlns="http://www.w3.org/2000/svg" viewBox="0 0 20 20">
  <defs>
    <style>
      .cls-1 {
        fill: #403f4c;
      }
    </style>
  </defs>
  <title>icon_menu_home</title>
  <path id="Path_842" data-name="Path 842" class="cls-1" d="M18.866,9.035,10.4,2.153a.623.623,0,0,0-.818,0L1.143,9.035a.611.611,0,0,0-.2.725.627.627,0,0,0,.614.428H3.931v7.161A.66.66,0,0,0,4.582,18H15.425a.658.658,0,0,0,.651-.651V10.188h2.381a.641.641,0,0,0,.614-.428A.683.683,0,0,0,18.866,9.035Zm-7.849,4.52v3.162H8.971V13.555Zm.651-1.3H8.32a.66.66,0,0,0-.651.651v3.813H5.214V9.556A.659.659,0,0,0,4.563,8.9H3.354l6.64-5.394L16.634,8.9H15.425a.66.66,0,0,0-.651.651v7.161H12.319V12.9a.646.646,0,0,0-.643-.651h-.008Z"/>
</svg>
