<svg id="Group_4755" data-name="Group 4755" xmlns="http://www.w3.org/2000/svg" viewBox="0 0 20 20">
  <defs>
    <style>
      .cls-1 {
        fill: #403f4b;
      }
    </style>
  </defs>
  <title>icon_menu_logoff</title>
  <path id="Path_8064" data-name="Path 8064" class="cls-1" d="M10.011,2.5a1.078,1.078,0,0,0-.95,1v6a.951.951,0,0,0,1.9.087.632.632,0,0,0,0-.087v-6a.966.966,0,0,0-.933-1ZM6.667,5a.945.945,0,0,0-.25.094,6.3,6.3,0,0,0-3.125,7.469A6.908,6.908,0,0,0,9.98,17.5,6.956,6.956,0,0,0,16.7,12.719a6.423,6.423,0,0,0-3.125-7.594,1,1,0,0,0-1.313.344,1,1,0,0,0,.344,1.313,4.382,4.382,0,0,1,2.281,5.375A4.973,4.973,0,0,1,9.98,15.594,4.952,4.952,0,0,1,5.105,12,4.226,4.226,0,0,1,7.292,6.781.95.95,0,0,0,6.761,5Z"/>
</svg>
