<svg id="Group_4755" data-name="Group 4755" xmlns="http://www.w3.org/2000/svg" viewBox="0 0 20 20">
  <defs>
    <style>
      .cls-1 {
        fill: #403f4c;
      }
    </style>
  </defs>
  <title>icon_menu_student</title>
  <g>
    <path class="cls-1" d="M14.433,9.293H13.052a4.67,4.67,0,0,0-3.9,2.091,4.693,4.693,0,0,0-2.162-.53H5.567A4.722,4.722,0,0,0,.85,15.565v.672a1.711,1.711,0,0,0,1.709,1.709h7.4a1.718,1.718,0,0,0,1.7-1.537h5.784A1.711,1.711,0,0,0,19.15,14.7v-.692A4.723,4.723,0,0,0,14.433,9.293ZM10.47,16.237a.518.518,0,0,1-.518.518h-7.4a.518.518,0,0,1-.518-.518v-.668A3.53,3.53,0,0,1,5.56,12.043H6.966a3.535,3.535,0,0,1,3.5,3.526Zm7.485-1.558a.519.519,0,0,1-.518.518H11.656a4.716,4.716,0,0,0-1.546-3.131,3.524,3.524,0,0,1,2.93-1.582h1.411a3.536,3.536,0,0,1,3.5,3.527Z"/>
    <path class="cls-1" d="M6.257,10.373a3.38,3.38,0,1,0-3.38-3.38A3.384,3.384,0,0,0,6.257,10.373ZM6.241,4.937h.022a2.178,2.178,0,0,1-.01,4.356H6.242A2.178,2.178,0,0,1,4.074,7.105,2.186,2.186,0,0,1,6.241,4.937Z"/>
    <path class="cls-1" d="M13.742,8.813a3.38,3.38,0,1,0-3.38-3.379A3.383,3.383,0,0,0,13.742,8.813Zm-.011-5.406h.021a2.178,2.178,0,0,1-.01,4.356h-.01a2.178,2.178,0,0,1,0-4.356Z"/>
  </g>
</svg>
