<svg id="Group_4755" data-name="Group 4755" xmlns="http://www.w3.org/2000/svg" viewBox="0 0 20 20">
  <defs>
    <style>
      .cls-1 {
        fill: #403f4c;
      }
    </style>
  </defs>
  <title>icon_menu_teacher</title>
  <g>
    <path class="cls-1" d="M17.01,5.419a.378.378,0,0,0-.378-.378H9.973a.378.378,0,1,0,0,.756h6.659A.378.378,0,0,0,17.01,5.419Z"/>
    <path class="cls-1" d="M9.974,7.046a.379.379,0,0,0,0,.758h3.773a.379.379,0,0,0,0-.758Z"/>
    <path class="cls-1" d="M9.973,9.81h5.145a.378.378,0,1,0,0-.756H9.973a.378.378,0,0,0,0,.756Z"/>
    <path class="cls-1" d="M19.046,2.127H5.654A.455.455,0,0,0,5.2,2.58V3.888c.076,0,.147-.022.223-.022a3.822,3.822,0,0,1,.684.068v-.9H18.591v8.692H8.476a6.636,6.636,0,0,1,.609.445,4.536,4.536,0,0,1,.466.464h9.495a.456.456,0,0,0,.454-.455V2.58A.454.454,0,0,0,19.046,2.127Z"/>
    <path class="cls-1" d="M8.169,11.978a4.323,4.323,0,0,0-2.1-.539H4.784A4.3,4.3,0,0,0,.5,15.723v.61a1.543,1.543,0,0,0,1.54,1.541H8.8a1.55,1.55,0,0,0,1.537-1.518v-.843h0a4.278,4.278,0,0,0-1.5-3.055A5.987,5.987,0,0,0,8.169,11.978ZM9.3,15.723v.61a.5.5,0,0,1-.5.5H2.04a.5.5,0,0,1-.5-.5v-.61a3.251,3.251,0,0,1,3.247-3.247h1.29A3.254,3.254,0,0,1,9.3,15.723Z"/>
    <path class="cls-1" d="M5.425,11.132A3.445,3.445,0,1,0,1.979,7.687,3.444,3.444,0,0,0,5.425,11.132Zm0-5.9v0a2.461,2.461,0,1,1-2.46,2.46A2.46,2.46,0,0,1,5.425,5.232Z"/>
  </g>
</svg>
