<svg id="Group_4755" data-name="Group 4755" xmlns="http://www.w3.org/2000/svg" viewBox="0 0 20 20">
  <defs>
    <style>
      .cls-1 {
        fill: #403f4c;
      }
    </style>
  </defs>
  <title>icon_menu_schedule</title>
  <g>
    <path class="cls-1" d="M16.666,2H3.333A2.388,2.388,0,0,0,.95,4.383V15.617A2.388,2.388,0,0,0,3.333,18H16.666a2.388,2.388,0,0,0,2.384-2.383V4.383A2.388,2.388,0,0,0,16.666,2Zm1.115,13.617a1.119,1.119,0,0,1-1.115,1.115H3.333a1.119,1.119,0,0,1-1.115-1.115V7.792H17.781Zm0-9.117H2.218V4.38A1.119,1.119,0,0,1,3.333,3.268H16.666a1.119,1.119,0,0,1,1.115,1.115Z"/>
    <path class="cls-1" d="M4.338,11.137H6.677a.634.634,0,0,0,0-1.268H4.338a.634.634,0,1,0,0,1.268Z"/>
    <path class="cls-1" d="M4.336,14.088H6.677a.634.634,0,1,0,0-1.268H4.338a.634.634,0,1,0,0,1.268Z"/>
    <path class="cls-1" d="M8.819,11.137h2.339a.634.634,0,0,0,.634-.634.617.617,0,0,0-.6-.634H8.819a.634.634,0,0,0,0,1.268Z"/>
    <path class="cls-1" d="M11.194,12.82H8.819a.634.634,0,0,0,0,1.268h2.339a.634.634,0,0,0,.634-.634A.617.617,0,0,0,11.194,12.82Z"/>
    <path class="cls-1" d="M13.322,11.137h2.339a.634.634,0,0,0,0-1.268H13.322a.634.634,0,0,0,0,1.268Z"/>
    <path class="cls-1" d="M13.32,14.088h2.341a.634.634,0,0,0,0-1.268H13.322a.634.634,0,1,0,0,1.268Z"/>
    <path class="cls-1" d="M5.038,3.9A.962.962,0,1,0,6,4.864.962.962,0,0,0,5.038,3.9Z"/>
    <path class="cls-1" d="M14.961,3.9a.962.962,0,1,0,.962.962A.962.962,0,0,0,14.961,3.9Z"/>
  </g>
</svg>
