<svg xmlns="http://www.w3.org/2000/svg" viewBox="0 0 12 12">
  <defs>
    <style>
      .cls-1 {
        fill: #ff5666;
      }
    </style>
  </defs>
  <g id="ico_delete" transform="translate(-1277 -707.7)">
    <path id="Check_Circle_Mark_Checkbox_1_" class="cls-1" d="M1283,719.7a6,6,0,1,1,6-6A6.018,6.018,0,0,1,1283,719.7Zm0-10.7a4.7,4.7,0,1,0,4.7,4.7h0A4.7,4.7,0,0,0,1283,709Z"/>
    <g id="Group_3655" data-name="Group 3655">
      <path id="Path_9113" data-name="Path 9113" class="cls-1" d="M1285.3,715.8a.52.52,0,0,1-.2.4.758.758,0,0,1-.4.2.55.55,0,0,1-.5-.3l-1.2-1.5-1.2,1.5-.2.2c-.1,0-.2.1-.3.1a.758.758,0,0,1-.4-.2.52.52,0,0,1-.2-.4.6.6,0,0,1,.1-.4l1.4-1.7-1.4-1.8c-.1-.1-.1-.2-.1-.4a.52.52,0,0,1,.2-.4.758.758,0,0,1,.4-.2.55.55,0,0,1,.5.3l1.2,1.5,1.1-1.5a.55.55,0,0,1,.5-.3.707.707,0,0,1,.6.6.6.6,0,0,1-.1.4l-1.4,1.7,1.4,1.8A.52.52,0,0,1,1285.3,715.8Z"/>
    </g>
  </g>
</svg>
