<svg xmlns="http://www.w3.org/2000/svg" viewBox="0 0 17.1 14.6">
  <defs>
    <style>
      .cls-1 {
        opacity: 0.7;
      }

      .cls-2 {
        fill: #403f4c;
      }
    </style>
  </defs>
  <g id="ico_camera" class="cls-1" transform="translate(-6.9 -13.5)">
    <path id="Path_9211" data-name="Path 9211" class="cls-2" d="M24,18.2A2.22,2.22,0,0,0,21.8,16H19.6l-.2-.8a2.14,2.14,0,0,0-2.1-1.7H13.5a2.14,2.14,0,0,0-2.1,1.7l-.2.8H9.1a2.22,2.22,0,0,0-2.2,2.2v7.7a2.22,2.22,0,0,0,2.2,2.2H21.8A2.22,2.22,0,0,0,24,25.9Zm-1.3,0v7.7a.9.9,0,0,1-.9.9H9.1a.9.9,0,0,1-.9-.9V18.2a.9.9,0,0,1,.9-.9h2.6a.634.634,0,0,0,.6-.5l.3-1.3a.961.961,0,0,1,.9-.7h3.8a.961.961,0,0,1,.9.7l.3,1.3a.634.634,0,0,0,.6.5h2.6A.923.923,0,0,1,22.7,18.2Z"/>
    <path id="Path_9212" data-name="Path 9212" class="cls-2" d="M15.4,17.3a4.3,4.3,0,1,0,4.3,4.3A4.207,4.207,0,0,0,15.4,17.3Zm3.1,4.3a3,3,0,1,1-3-3A3.009,3.009,0,0,1,18.5,21.6Z"/>
  </g>
</svg>
