<?xml version="1.0" encoding="utf-8"?>
<!-- Generator: Adobe Illustrator 22.1.0, SVG Export Plug-In . SVG Version: 6.00 Build 0)  -->
<svg version="1.1" id="Layer_1" xmlns="http://www.w3.org/2000/svg" xmlns:xlink="http://www.w3.org/1999/xlink" x="0px" y="0px"
	 viewBox="0 0 12 12" style="enable-background:new 0 0 12 12;" xml:space="preserve">
<style type="text/css">
	.st0{fill:#FF5666;}
</style>
<path class="st0" d="M6,0C2.7,0,0,2.7,0,6s2.7,6,6,6s6-2.7,6-6S9.3,0,6,0z M6,10.7c-2.6,0-4.7-2.1-4.7-4.7S3.4,1.3,6,1.3
	s4.7,2.1,4.7,4.7l0,0C10.7,8.6,8.6,10.7,6,10.7z"/>
<g>
	<path class="st0" d="M8.306,8.094c0,0.168-0.064,0.313-0.192,0.434C7.986,8.649,7.845,8.71,7.69,8.71
		c-0.195,0-0.36-0.088-0.494-0.263L5.985,6.943l-1.18,1.504C4.744,8.528,4.671,8.59,4.587,8.634C4.503,8.678,4.414,8.7,4.32,8.7
		c-0.141,0-0.276-0.054-0.404-0.162C3.788,8.43,3.724,8.306,3.724,8.164c0-0.135,0.051-0.262,0.152-0.384l1.403-1.716L3.825,4.259
		C3.738,4.151,3.694,4.03,3.694,3.896c0-0.168,0.062-0.311,0.186-0.429C4.005,3.349,4.148,3.29,4.31,3.29
		c0.195,0,0.36,0.084,0.494,0.252l1.241,1.544l1.151-1.524C7.324,3.381,7.485,3.29,7.68,3.29c0.161,0,0.298,0.055,0.409,0.166
		C8.2,3.568,8.255,3.694,8.255,3.835c0,0.148-0.047,0.279-0.141,0.393L6.721,5.924l1.453,1.807C8.262,7.838,8.306,7.959,8.306,8.094
		z"/>
</g>
</svg>
