<svg id="img_placeholder" xmlns="http://www.w3.org/2000/svg" viewBox="0 0 112 112">
  <defs>
    <style>
      .cls-1 {
        fill: #c7c8c8;
      }

      .cls-2 {
        fill: #dfdfdf;
      }
    </style>
  </defs>
  <circle id="Ellipse_221" data-name="Ellipse 221" class="cls-1" cx="56" cy="56" r="56"/>
  <path id="Path_9210" data-name="Path 9210" class="cls-2" d="M104.585,90.075h0c-.044,0-.066-.022-.088-.022s-.066-.022-.088-.022h0l-.11-.022c-.331-2.6-1.323-4.872-3.506-6.063v.176a14.117,14.117,0,0,0-.485-3.594,38.215,38.215,0,0,0,3.836-5.843c2.117.353,4.939-1.5,6.791-4.586,2.2-3.616,2.293-7.672,0-8.907a2.458,2.458,0,0,0-.926-.353,25.848,25.848,0,0,0,1.543-10.583l.882,3.528c2.381-15.874-13.581-21.959-13.581-21.959,1.676-.176,4.409,1.323,4.409,1.323-7.43-8.488-19.534-3.175-19.754-3.087,3.969-3.373,7.54-3.2,7.827-3.175-17.528-2.646-20.526,7.849-20.526,7.849a6.539,6.539,0,0,1-.706-3.88c-1.213,2.072.044,6.173.088,6.35-1.235-3.087-5.556-2.557-5.556-2.557,3.7.617,4.321,2.91,4.321,2.91C59.7,41,61.284,50.611,61.284,50.611l2.2-2.646A20.492,20.492,0,0,0,64.415,60.8l-.132.066h0a2.758,2.758,0,0,0-1.676.353c-2.117,1.323-2.028,5.291.176,8.907,1.852,3.087,4.674,4.85,6.791,4.586a39.426,39.426,0,0,0,3.858,5.843,18.1,18.1,0,0,0-.507,3.594v.2a1.63,1.63,0,0,1,0-.375c-2.183,1.213-3.175,3.483-3.483,6.129C60.755,92.324,47.7,98.674,39.7,106.7a56.027,56.027,0,0,0,94.539-.044C126.169,98.828,113.183,92.28,104.585,90.075Z" transform="translate(-30.947 -20.626)"/>
</svg>
