<svg xmlns="http://www.w3.org/2000/svg" viewBox="0 0 16 16"><defs><style>.a{fill:#403f4c;}</style></defs><g transform="translate(-8 -8)"><g transform="translate(8 8)"><path class="a" d="M16,8a8,8,0,1,0,8,8A8,8,0,0,0,16,8ZM12.44,21.8A3.768,3.768,0,0,1,16,18.22a3.767,3.767,0,0,1,3.56,3.58,6.837,6.837,0,0,1-7.12,0ZM16,16.3a1.562,1.562,0,0,1-1.56-1.56A1.545,1.545,0,0,1,16,13.2a1.562,1.562,0,0,1,1.56,1.56A1.545,1.545,0,0,1,16,16.3Zm4.66,4.66a5.041,5.041,0,0,0-3.4-3.76,2.754,2.754,0,1,0-4.02-2.44,2.732,2.732,0,0,0,1.5,2.44,5.009,5.009,0,0,0-3.4,3.76,6.8,6.8,0,1,1,9.32,0Z" transform="translate(-8 -8)"/></g></g></svg>