<?xml version="1.0" encoding="utf-8"?>
<!-- Generator: Adobe Illustrator 22.1.0, SVG Export Plug-In . SVG Version: 6.00 Build 0)  -->
<svg version="1.1" id="Camada_1" xmlns="http://www.w3.org/2000/svg" xmlns:xlink="http://www.w3.org/1999/xlink" x="0px" y="0px"
	 viewBox="0 0 50 50" style="enable-background:new 0 0 50 50;" xml:space="preserve">
<style type="text/css">
	.st0{fill:url(#Ellipse_217_1_);}
	.st1{fill:#FFFFFF;}
</style>
<g>
	
		<linearGradient id="Ellipse_217_1_" gradientUnits="userSpaceOnUse" x1="-915.006" y1="555.637" x2="-914.56" y2="554.637" gradientTransform="matrix(50 0 0 -50 45766 27786)">
		<stop  offset="0" style="stop-color:#00FDDC"/>
		<stop  offset="1" style="stop-color:#004FFF"/>
	</linearGradient>
	<circle id="Ellipse_217" class="st0" cx="25" cy="25" r="25"/>
	<path class="st1" d="M12.288,24.849l21.381-9.964l0.014-0.004c0.053-0.023,0.108-0.038,0.162-0.045l0.009-0.003
		c0.007-0.002,0.024-0.007,0.034,0.001l0.014-0.004l0.019,0.002l0.007-0.002c0.009,0.005,0.019,0.003,0.026,0.001l0.007-0.002
		l0.01,0.008c0.016-0.005,0.026,0,0.044,0.003c0.027,0.01,0.061,0.017,0.089,0.027l0.007-0.002l0.002,0.007l0.012,0.005l0.007-0.002
		l0.009,0.005l0.012,0.005l0.01,0.008l0.016,0.003l0.002,0.007l0.03,0.017l0.01-0.003l0.002,0.007l0.009,0.008l0.002,0.007
		l0.007-0.002l0.002,0.007l0.01,0.008l0.011,0.004l0.002,0.007l0.007-0.002l0.002,0.007l0.019,0.01l0.003,0.01l0.011,0.005
		l0.009,0.005l0.005,0.017l0.007-0.002l0.002,0.007l0.011,0.005l0.005,0.016l0.007-0.002l0.005,0.017l0.009,0.005l0.004,0.015
		l0.009,0.008l0.004,0.014l0.01-0.003l0.009,0.031l0.01,0.007l0.009,0.031l0.006,0.004l0.043,0.155l-0.003,0.019l0.009,0.031
		l-0.005,0.009l0.007,0.024l-0.007,0.002l0.002,0.007c0.003,0.009-0.005,0.019-0.001,0.033l0.003,0.01
		c-0.011,0.052-0.02,0.103-0.048,0.162l-0.005,0.009l-9.629,21.537c-0.053,0.14-0.168,0.265-0.326,0.323
		c-0.294,0.115-0.621-0.036-0.734-0.323l-3.104-8.279l-8.323-2.975c-0.297-0.108-0.446-0.434-0.345-0.729
		C12.02,25.023,12.144,24.906,12.288,24.849L12.288,24.849z M33.928,14.831c0.009,0.005,0.019,0.003,0.026,0.001 M32.108,18.029
		L21.732,28.582l2.579,6.889L32.108,18.029z M31.303,17.233l-17.32,8.074l6.934,2.474L31.303,17.233z M31.303,17.233"/>
</g>
</svg>
