<?xml version="1.0" encoding="utf-8"?>
<!-- Generator: Adobe Illustrator 22.1.0, SVG Export Plug-In . SVG Version: 6.00 Build 0)  -->
<svg version="1.1" id="Camada_1" xmlns="http://www.w3.org/2000/svg" xmlns:xlink="http://www.w3.org/1999/xlink" x="0px" y="0px"
	 viewBox="0 0 50 50" style="enable-background:new 0 0 50 50;" xml:space="preserve">
<style type="text/css">
	.st0{fill:#29ABE2;}
	.st1{fill:#FFFFFF;}
</style>
<g>
	<circle class="st0" cx="25" cy="25" r="25"/>
</g>
<path class="st1" d="M13.11,24.878l20.386-9.338l0.013-0.004c0.05-0.021,0.103-0.035,0.155-0.042l0.009-0.002
	c0.007-0.002,0.023-0.006,0.032,0.001l0.013-0.004l0.018,0.002l0.007-0.002c0.008,0.005,0.018,0.003,0.025,0.001l0.006-0.002
	l0.009,0.007c0.016-0.004,0.024,0,0.042,0.003c0.025,0.01,0.058,0.016,0.085,0.026l0.007-0.002l0.002,0.007l0.011,0.004l0.006-0.002
	l0.009,0.005l0.011,0.004l0.009,0.007l0.015,0.003l0.002,0.007l0.029,0.017l0.009-0.003l0.002,0.007l0.009,0.008l0.002,0.006
	l0.007-0.002l0.002,0.007l0.009,0.007l0.01,0.004l0.002,0.007l0.007-0.002l0.002,0.007l0.018,0.01l0.003,0.009l0.011,0.005
	l0.009,0.005l0.004,0.016l0.007-0.002l0.002,0.006l0.011,0.005l0.004,0.016l0.007-0.002l0.004,0.016l0.009,0.005l0.004,0.014
	l0.009,0.008l0.004,0.013l0.009-0.003l0.008,0.03l0.009,0.007l0.008,0.03l0.006,0.003l0.04,0.148l-0.003,0.018l0.008,0.03
	l-0.005,0.009l0.006,0.023l-0.007,0.002l0.002,0.007c0.002,0.009-0.005,0.018-0.001,0.031l0.003,0.009
	c-0.011,0.049-0.02,0.098-0.047,0.153l-0.005,0.009l-9.287,20.413c-0.052,0.133-0.161,0.251-0.312,0.305
	c-0.28,0.107-0.59-0.038-0.696-0.312l-2.899-7.89l-7.893-2.88c-0.281-0.104-0.421-0.415-0.324-0.695
	C12.854,25.042,12.973,24.932,13.11,24.878L13.11,24.878z M33.743,15.49c0.008,0.005,0.018,0.003,0.025,0.001 M31.994,18.519
	l-9.929,9.967l2.408,6.565L31.994,18.519z M31.233,17.757l-16.515,7.567l6.576,2.395L31.233,17.757z M31.233,17.757"/>
</svg>
