<svg xmlns="http://www.w3.org/2000/svg" viewBox="0 0 15.996 16"></svg>
  <defs>
    <style>
      .a,
      .b {
        fill: #403f4c;
      }

      .b {
        font-size: 12px;
        font-family: QuicksandBold-Regular, Quicksand;
      }
    </style>
  </defs>
  <g transform="translate(16413.701 15838)">
    <path class="a" d="M54.533,14h0a7.76,7.76,0,0,0-7.066,10.971l-1.14,4.079a.749.749,0,0,0,.722.951.734.734,0,0,0,.2-.028l4.082-1.142A7.761,7.761,0,1,0,54.533,14Zm4.432,12.2a6.258,6.258,0,0,1-7.246,1.171c-.013-.006-.026-.009-.039-.015a.707.707,0,0,0-.084-.032c-.021-.006-.042-.01-.063-.014a.561.561,0,0,0-.15-.015.711.711,0,0,0-.073,0,.722.722,0,0,0-.08.014c-.016,0-.032,0-.048.008l-3.054.854.855-3.059c0-.016,0-.033.008-.049A.684.684,0,0,0,49,24.985c0-.024,0-.047,0-.071a.741.741,0,0,0,0-.074c0-.025-.007-.049-.012-.073a.686.686,0,0,0-.016-.069c-.008-.026-.018-.051-.029-.076s-.01-.03-.017-.045a6.268,6.268,0,0,1,5.6-9.077h0a6.269,6.269,0,0,1,4.432,10.7Z"
      transform="translate(-16460 -15852)" />
    <text class="b" transform="translate(-16402.357 -15826)">
      <tspan x="-6.408" y="0">?</tspan>
    </text>
  </g>
</svg>