<svg xmlns="http://www.w3.org/2000/svg" viewBox="0 0 17.4 19.159"><defs><style>.a,.b{fill:#403f4c;stroke:#fff;stroke-width:0.4px;}.b{fill-rule:evenodd;}</style></defs><g transform="translate(-2.3 -0.8)"><g transform="translate(2.5 1)"><path class="a" d="M5.431,15.655h13.19a.879.879,0,0,0,.879-.879V1.879A.879.879,0,0,0,18.621,1H5.431A2.934,2.934,0,0,0,2.5,3.931v12.9a2.934,2.934,0,0,0,2.931,2.931h13.19a.879.879,0,1,0,0-1.759H5.431a1.172,1.172,0,0,1,0-2.345ZM4.259,3.931A1.174,1.174,0,0,1,5.431,2.759h12.31V13.9H5.431a2.9,2.9,0,0,0-1.172.249Z" transform="translate(-2.5 -1)"/><path class="b" d="M331.542,335.623c-.014.016-.019.036-.034.051a.918.918,0,0,1-1,.2.939.939,0,0,1-.343-.214.91.91,0,0,1-.056-.085l-1.849-1.848a.92.92,0,1,1,1.3-1.3l1.247,1.247,4.064-4.064a.951.951,0,1,1,1.344,1.345Z" transform="translate(-323.22 -325.792)"/></g></g></svg>