<?xml version="1.0" encoding="utf-8"?>
<!-- Generator: Adobe Illustrator 22.1.0, SVG Export Plug-In . SVG Version: 6.00 Build 0)  -->
<svg version="1.1" id="Camada_1" xmlns="http://www.w3.org/2000/svg" xmlns:xlink="http://www.w3.org/1999/xlink" x="0px" y="0px"
	 viewBox="0 0 24 16" style="enable-background:new 0 0 24 16;" xml:space="preserve">
<style type="text/css">
	.st0{fill:#F5F5F5;}
	.st1{fill:#FF4B55;}
	.st2{fill:#41479B;}
</style>
<g id="flag_united-states" transform="translate(1212.001 15.8)">
	<path class="st0" d="M-1188.001-13.8v12c0,0.33-0.08,0.65-0.23,0.92c-0.33,0.64-1,1.08-1.77,1.08h-20c-0.77,0-1.44-0.44-1.77-1.08
		c-0.15-0.27-0.23-0.59-0.23-0.92v-12c0-0.34,0.08-0.66,0.24-0.94c0.33-0.63,1-1.06,1.76-1.06h20c0.76,0,1.43,0.43,1.76,1.06
		C-1188.081-14.46-1188.001-14.14-1188.001-13.8z"/>
	<path class="st1" d="M-1188.241-14.74h-23.52c0.33-0.63,1-1.06,1.76-1.06h20C-1189.241-15.8-1188.571-15.37-1188.241-14.74z"/>
	<rect x="-1212.001" y="-10.96" class="st1" width="24" height="1.26"/>
	<rect x="-1212.001" y="-13.48" class="st1" width="24" height="1.26"/>
	<path class="st1" d="M-1188.001-8.44v1.26h-23.57c-0.24,0-0.43-0.19-0.43-0.43v-0.83H-1188.001z"/>
	<rect x="-1212.001" y="-3.4" class="st1" width="24" height="1.26"/>
	<path class="st1" d="M-1188.231-0.88c-0.33,0.64-1,1.08-1.77,1.08h-20c-0.77,0-1.44-0.44-1.77-1.08H-1188.231z"/>
	<rect x="-1212.001" y="-5.92" class="st1" width="24" height="1.26"/>
	<path class="st2" d="M-1200.361-15.57v7.96c0,0.24-0.19,0.43-0.43,0.43h-10.78c-0.24,0-0.43-0.19-0.43-0.43v-6.19
		c0-0.34,0.08-0.66,0.24-0.94c0.33-0.63,1-1.06,1.76-1.06h9.57C-1200.381-15.74-1200.361-15.66-1200.361-15.57z"/>
	<path id="Path_801" class="st0" d="M-1210.79-15.007l0.1,0.286h0.3c0.023,0.001,0.04,0.02,0.039,0.043
		c0,0.012-0.006,0.023-0.015,0.03l-0.243,0.179l0.091,0.288c0.006,0.022-0.007,0.044-0.029,0.05
		c-0.011,0.003-0.023,0.001-0.033-0.005l-0.245-0.175l-0.245,0.175c-0.019,0.012-0.044,0.007-0.057-0.012
		c-0.006-0.01-0.008-0.022-0.005-0.033l0.091-0.288l-0.243-0.179c-0.018-0.014-0.021-0.04-0.006-0.058
		c0.007-0.009,0.019-0.015,0.03-0.015h0.3l0.1-0.286c0.012-0.019,0.037-0.025,0.056-0.014
		C-1210.798-15.017-1210.793-15.013-1210.79-15.007z"/>
	<path id="Path_802" class="st0" d="M-1210.79-13.514l0.1,0.286h0.3c0.023,0.001,0.04,0.02,0.039,0.043
		c0,0.012-0.006,0.023-0.015,0.03l-0.243,0.179l0.091,0.288c0.006,0.022-0.007,0.044-0.029,0.05
		c-0.011,0.003-0.023,0.001-0.033-0.005l-0.245-0.175l-0.245,0.175c-0.019,0.012-0.044,0.007-0.057-0.012
		c-0.006-0.01-0.008-0.022-0.005-0.033l0.091-0.288l-0.243-0.179c-0.018-0.014-0.021-0.04-0.006-0.058
		c0.007-0.009,0.019-0.015,0.03-0.015h0.3l0.1-0.286c0.012-0.019,0.037-0.025,0.056-0.014
		C-1210.798-13.524-1210.793-13.52-1210.79-13.514z"/>
	<path id="Path_803" class="st0" d="M-1210.79-12.017l0.1,0.286h0.3c0.023,0.001,0.04,0.02,0.039,0.043
		c0,0.012-0.006,0.023-0.015,0.03l-0.243,0.179l0.091,0.288c0.006,0.022-0.007,0.044-0.029,0.05
		c-0.011,0.003-0.023,0.001-0.033-0.005l-0.248-0.176l-0.245,0.175c-0.019,0.012-0.044,0.007-0.057-0.012
		c-0.006-0.01-0.008-0.022-0.005-0.033l0.091-0.288l-0.243-0.179c-0.018-0.014-0.021-0.04-0.006-0.058
		c0.007-0.009,0.019-0.015,0.03-0.015h0.3l0.1-0.286c0.011-0.02,0.035-0.028,0.055-0.017
		C-1210.8-12.031-1210.794-12.025-1210.79-12.017z"/>
	<path id="Path_804" class="st0" d="M-1210.79-10.52l0.1,0.286h0.3c0.023,0.001,0.04,0.02,0.039,0.043
		c0,0.012-0.006,0.023-0.015,0.03l-0.243,0.179l0.091,0.288c0.006,0.022-0.007,0.044-0.029,0.05
		c-0.011,0.003-0.023,0.001-0.033-0.005l-0.245-0.175l-0.245,0.175c-0.019,0.012-0.044,0.007-0.057-0.012
		c-0.006-0.01-0.008-0.022-0.005-0.033l0.091-0.288l-0.243-0.179c-0.018-0.014-0.021-0.04-0.006-0.058
		c0.007-0.009,0.019-0.015,0.03-0.015h0.3l0.1-0.286c0.012-0.019,0.037-0.025,0.056-0.014
		C-1210.798-10.53-1210.793-10.526-1210.79-10.52z"/>
	<path id="Path_805" class="st0" d="M-1210.79-9.023l0.1,0.286h0.3c0.023,0.001,0.04,0.02,0.039,0.043
		c0,0.012-0.006,0.023-0.015,0.03l-0.243,0.179l0.091,0.288c0.006,0.022-0.007,0.044-0.029,0.05
		c-0.011,0.003-0.023,0.001-0.033-0.005l-0.245-0.175l-0.245,0.175c-0.019,0.012-0.044,0.007-0.057-0.012
		c-0.006-0.01-0.008-0.022-0.005-0.033l0.091-0.288l-0.243-0.179c-0.018-0.014-0.021-0.04-0.006-0.058
		c0.007-0.009,0.019-0.015,0.03-0.015h0.3l0.1-0.286c0.012-0.019,0.037-0.025,0.056-0.014
		C-1210.798-9.033-1210.793-9.029-1210.79-9.023z"/>
	<path id="Path_806" class="st0" d="M-1209.628-14.277l0.1,0.286h0.3c0.023,0.001,0.04,0.02,0.039,0.043
		c0,0.012-0.006,0.023-0.015,0.03l-0.243,0.179l0.091,0.288c0.006,0.022-0.007,0.044-0.029,0.05
		c-0.011,0.003-0.023,0.001-0.033-0.005l-0.245-0.175l-0.245,0.175c-0.019,0.012-0.044,0.007-0.057-0.012
		c-0.006-0.01-0.008-0.022-0.005-0.033l0.091-0.288l-0.243-0.179c-0.018-0.014-0.021-0.04-0.006-0.058
		c0.007-0.009,0.019-0.015,0.03-0.015h0.3l0.1-0.286c0.012-0.019,0.037-0.025,0.056-0.014
		C-1209.636-14.287-1209.631-14.283-1209.628-14.277z"/>
	<path id="Path_807" class="st0" d="M-1209.628-12.779l0.1,0.286h0.3c0.023,0.001,0.04,0.02,0.039,0.043
		c0,0.012-0.006,0.023-0.015,0.03l-0.243,0.179l0.091,0.288c0.006,0.022-0.007,0.044-0.029,0.05
		c-0.011,0.003-0.023,0.001-0.033-0.005l-0.245-0.175l-0.245,0.175c-0.019,0.012-0.044,0.007-0.057-0.012
		c-0.006-0.01-0.008-0.022-0.005-0.033l0.091-0.288l-0.243-0.179c-0.018-0.014-0.021-0.04-0.006-0.058
		c0.007-0.009,0.019-0.015,0.03-0.015h0.3l0.1-0.286c0.012-0.019,0.037-0.025,0.056-0.014
		C-1209.636-12.789-1209.631-12.785-1209.628-12.779z"/>
	<path id="Path_808" class="st0" d="M-1209.628-11.282l0.1,0.286h0.3c0.023,0.001,0.04,0.02,0.039,0.043
		c0,0.012-0.006,0.023-0.015,0.03l-0.243,0.179l0.091,0.288c0.006,0.022-0.007,0.044-0.029,0.05
		c-0.011,0.003-0.023,0.001-0.033-0.005l-0.245-0.175l-0.245,0.175c-0.019,0.012-0.044,0.007-0.057-0.012
		c-0.006-0.01-0.008-0.022-0.005-0.033l0.091-0.288l-0.243-0.179c-0.018-0.014-0.021-0.04-0.006-0.058
		c0.007-0.009,0.019-0.015,0.03-0.015h0.3l0.1-0.286c0.012-0.019,0.037-0.025,0.056-0.014
		C-1209.636-11.292-1209.631-11.288-1209.628-11.282z"/>
	<path id="Path_809" class="st0" d="M-1209.628-9.786l0.1,0.286h0.3c0.023,0.001,0.04,0.02,0.039,0.043
		c0,0.012-0.006,0.023-0.015,0.03l-0.243,0.179l0.091,0.288c0.006,0.022-0.007,0.044-0.029,0.05
		c-0.011,0.003-0.023,0.001-0.033-0.005l-0.245-0.175l-0.245,0.175c-0.019,0.012-0.044,0.007-0.057-0.012
		c-0.006-0.01-0.008-0.022-0.005-0.033l0.091-0.288l-0.243-0.179c-0.018-0.014-0.021-0.04-0.006-0.058
		c0.007-0.009,0.019-0.015,0.03-0.015h0.3l0.1-0.286c0.012-0.019,0.037-0.025,0.056-0.014
		C-1209.636-9.796-1209.631-9.792-1209.628-9.786z"/>
	<path id="Path_810" class="st0" d="M-1208.466-15.007l0.1,0.286h0.3c0.023,0.001,0.04,0.02,0.039,0.043
		c0,0.012-0.006,0.023-0.015,0.03l-0.243,0.179l0.091,0.288c0.006,0.022-0.007,0.044-0.029,0.05
		c-0.011,0.003-0.023,0.001-0.033-0.005l-0.245-0.175l-0.245,0.175c-0.019,0.012-0.044,0.007-0.057-0.012
		c-0.006-0.01-0.008-0.022-0.005-0.033l0.091-0.288l-0.243-0.179c-0.018-0.014-0.021-0.04-0.006-0.058
		c0.007-0.009,0.019-0.015,0.03-0.015h0.3l0.1-0.286c0.012-0.019,0.037-0.025,0.056-0.014
		C-1208.474-15.017-1208.469-15.013-1208.466-15.007z"/>
	<path id="Path_811" class="st0" d="M-1208.466-13.514l0.1,0.286h0.3c0.023,0.001,0.04,0.02,0.039,0.043
		c0,0.012-0.006,0.023-0.015,0.03l-0.243,0.179l0.091,0.288c0.006,0.022-0.007,0.044-0.029,0.05
		c-0.011,0.003-0.023,0.001-0.033-0.005l-0.245-0.175l-0.245,0.175c-0.019,0.012-0.044,0.007-0.057-0.012
		c-0.006-0.01-0.008-0.022-0.005-0.033l0.091-0.288l-0.243-0.179c-0.018-0.014-0.021-0.04-0.006-0.058
		c0.007-0.009,0.019-0.015,0.03-0.015h0.3l0.1-0.286c0.012-0.019,0.037-0.025,0.056-0.014
		C-1208.474-13.524-1208.469-13.52-1208.466-13.514z"/>
	<path id="Path_812" class="st0" d="M-1208.466-12.017l0.1,0.286h0.3c0.023,0.001,0.04,0.02,0.039,0.043
		c0,0.012-0.006,0.023-0.015,0.03l-0.243,0.179l0.091,0.288c0.006,0.022-0.007,0.044-0.029,0.05
		c-0.011,0.003-0.023,0.001-0.033-0.005l-0.248-0.176l-0.245,0.175c-0.019,0.012-0.044,0.007-0.057-0.012
		c-0.006-0.01-0.008-0.022-0.005-0.033l0.091-0.288l-0.243-0.179c-0.018-0.014-0.021-0.04-0.006-0.058
		c0.007-0.009,0.019-0.015,0.031-0.015h0.3l0.1-0.286c0.011-0.02,0.035-0.028,0.055-0.017
		C-1208.476-12.031-1208.47-12.025-1208.466-12.017z"/>
	<path id="Path_813" class="st0" d="M-1208.466-10.519l0.1,0.286h0.3c0.023,0.001,0.04,0.02,0.039,0.043
		c0,0.012-0.006,0.023-0.015,0.03l-0.243,0.179l0.091,0.287c0.006,0.022-0.007,0.044-0.029,0.05
		c-0.011,0.003-0.023,0.001-0.033-0.005l-0.245-0.175l-0.245,0.175c-0.019,0.012-0.044,0.007-0.057-0.012
		c-0.006-0.01-0.008-0.022-0.005-0.033l0.091-0.287l-0.243-0.179c-0.018-0.014-0.021-0.04-0.006-0.058
		c0.007-0.009,0.019-0.015,0.03-0.015h0.3l0.1-0.286c0.012-0.019,0.037-0.025,0.056-0.014
		C-1208.474-10.529-1208.469-10.525-1208.466-10.519z"/>
	<path id="Path_814" class="st0" d="M-1208.466-9.023l0.1,0.286h0.3c0.023,0.001,0.04,0.02,0.039,0.043
		c0,0.012-0.006,0.023-0.015,0.03l-0.243,0.179l0.091,0.288c0.006,0.022-0.007,0.044-0.029,0.05
		c-0.011,0.003-0.023,0.001-0.033-0.005l-0.245-0.175l-0.245,0.175c-0.019,0.012-0.044,0.007-0.057-0.012
		c-0.006-0.01-0.008-0.022-0.005-0.033l0.091-0.288l-0.243-0.179c-0.018-0.014-0.021-0.04-0.006-0.058
		c0.007-0.009,0.019-0.015,0.03-0.015h0.3l0.1-0.286c0.012-0.019,0.037-0.025,0.056-0.014
		C-1208.474-9.033-1208.469-9.029-1208.466-9.023z"/>
	<path id="Path_815" class="st0" d="M-1207.304-14.277l0.1,0.286h0.3c0.023,0.001,0.04,0.02,0.039,0.043
		c0,0.012-0.006,0.023-0.015,0.03l-0.243,0.179l0.091,0.288c0.006,0.022-0.007,0.044-0.029,0.05
		c-0.011,0.003-0.023,0.001-0.033-0.005l-0.245-0.175l-0.245,0.175c-0.019,0.012-0.044,0.007-0.057-0.012
		c-0.006-0.01-0.008-0.022-0.005-0.033l0.091-0.288l-0.243-0.179c-0.018-0.014-0.021-0.04-0.006-0.058
		c0.007-0.009,0.019-0.015,0.031-0.015h0.3l0.1-0.286c0.012-0.019,0.037-0.025,0.056-0.014
		C-1207.312-14.287-1207.307-14.283-1207.304-14.277z"/>
	<path id="Path_816" class="st0" d="M-1207.304-12.779l0.1,0.286h0.3c0.023,0.001,0.04,0.02,0.039,0.043
		c0,0.012-0.006,0.023-0.015,0.03l-0.243,0.179l0.091,0.288c0.006,0.022-0.007,0.044-0.029,0.05
		c-0.011,0.003-0.023,0.001-0.033-0.005l-0.245-0.175l-0.245,0.175c-0.019,0.012-0.044,0.007-0.057-0.012
		c-0.006-0.01-0.008-0.022-0.005-0.033l0.091-0.288l-0.243-0.179c-0.018-0.014-0.021-0.04-0.006-0.058
		c0.007-0.009,0.019-0.015,0.031-0.015h0.3l0.1-0.286c0.012-0.019,0.037-0.025,0.056-0.014
		C-1207.312-12.789-1207.307-12.785-1207.304-12.779z"/>
	<path id="Path_817" class="st0" d="M-1207.304-11.282l0.1,0.286h0.3c0.023,0.001,0.04,0.02,0.039,0.043
		c0,0.012-0.006,0.023-0.015,0.03l-0.243,0.179l0.091,0.288c0.006,0.022-0.007,0.044-0.029,0.05
		c-0.011,0.003-0.023,0.001-0.033-0.005l-0.245-0.175l-0.245,0.175c-0.019,0.012-0.044,0.007-0.057-0.012
		c-0.006-0.01-0.008-0.022-0.005-0.033l0.091-0.288l-0.243-0.179c-0.018-0.014-0.021-0.04-0.006-0.058
		c0.007-0.009,0.019-0.015,0.031-0.015h0.3l0.1-0.286c0.012-0.019,0.037-0.025,0.056-0.014
		C-1207.312-11.292-1207.307-11.288-1207.304-11.282z"/>
	<path id="Path_818" class="st0" d="M-1207.304-9.786l0.1,0.286h0.3c0.023,0.001,0.04,0.02,0.039,0.043
		c0,0.012-0.006,0.023-0.015,0.03l-0.243,0.179l0.091,0.288c0.006,0.022-0.007,0.044-0.029,0.05
		c-0.011,0.003-0.023,0.001-0.033-0.005l-0.245-0.175l-0.245,0.175c-0.019,0.012-0.044,0.007-0.057-0.012
		c-0.006-0.01-0.008-0.022-0.005-0.033l0.091-0.288l-0.243-0.179c-0.018-0.014-0.021-0.04-0.006-0.058
		c0.007-0.009,0.019-0.015,0.031-0.015h0.3l0.1-0.286c0.012-0.019,0.037-0.025,0.056-0.014
		C-1207.312-9.796-1207.307-9.792-1207.304-9.786z"/>
	<path id="Path_819" class="st0" d="M-1206.143-15.007l0.1,0.286h0.3c0.023,0.001,0.04,0.02,0.039,0.043
		c0,0.012-0.006,0.023-0.015,0.03l-0.243,0.179l0.091,0.288c0.006,0.022-0.007,0.044-0.029,0.05
		c-0.011,0.003-0.023,0.001-0.033-0.005l-0.245-0.175l-0.245,0.175c-0.019,0.012-0.044,0.007-0.057-0.012
		c-0.006-0.01-0.008-0.022-0.005-0.033l0.091-0.288l-0.243-0.179c-0.018-0.014-0.021-0.04-0.006-0.058
		c0.007-0.009,0.019-0.015,0.031-0.015h0.3l0.1-0.286c0.012-0.019,0.037-0.025,0.056-0.014
		C-1206.151-15.017-1206.146-15.013-1206.143-15.007z"/>
	<path id="Path_820" class="st0" d="M-1206.143-13.514l0.1,0.286h0.3c0.023,0.001,0.04,0.02,0.039,0.043
		c0,0.012-0.006,0.023-0.015,0.03l-0.243,0.179l0.091,0.288c0.006,0.022-0.007,0.044-0.029,0.05
		c-0.011,0.003-0.023,0.001-0.033-0.005l-0.245-0.175l-0.245,0.175c-0.019,0.012-0.044,0.007-0.057-0.012
		c-0.006-0.01-0.008-0.022-0.005-0.033l0.091-0.288l-0.243-0.179c-0.018-0.014-0.021-0.04-0.006-0.058
		c0.007-0.009,0.019-0.015,0.031-0.015h0.3l0.1-0.286c0.012-0.019,0.037-0.025,0.056-0.014
		C-1206.151-13.524-1206.146-13.52-1206.143-13.514z"/>
	<path id="Path_821" class="st0" d="M-1206.143-12.017l0.1,0.286h0.3c0.023,0.001,0.04,0.02,0.039,0.043
		c0,0.012-0.006,0.023-0.015,0.03l-0.243,0.179l0.091,0.288c0.006,0.022-0.007,0.044-0.029,0.05
		c-0.011,0.003-0.023,0.001-0.033-0.005l-0.249-0.176l-0.245,0.175c-0.019,0.012-0.044,0.007-0.057-0.012
		c-0.006-0.01-0.008-0.022-0.005-0.033l0.091-0.288l-0.243-0.179c-0.018-0.014-0.021-0.04-0.006-0.058
		c0.007-0.009,0.019-0.015,0.031-0.015h0.3l0.1-0.286c0.01-0.02,0.035-0.029,0.055-0.019
		C-1206.154-12.032-1206.147-12.026-1206.143-12.017z"/>
	<path id="Path_822" class="st0" d="M-1206.143-10.519l0.1,0.286h0.3c0.023,0.001,0.04,0.02,0.039,0.043
		c0,0.012-0.006,0.023-0.015,0.03l-0.243,0.179l0.091,0.287c0.006,0.022-0.007,0.044-0.029,0.05
		c-0.011,0.003-0.023,0.001-0.033-0.005l-0.245-0.175l-0.245,0.175c-0.019,0.012-0.044,0.007-0.057-0.012
		c-0.006-0.01-0.008-0.022-0.005-0.033l0.091-0.287l-0.243-0.179c-0.018-0.014-0.021-0.04-0.006-0.058
		c0.007-0.009,0.019-0.015,0.031-0.015h0.3l0.1-0.286c0.012-0.019,0.037-0.025,0.056-0.014
		C-1206.151-10.529-1206.146-10.525-1206.143-10.519z"/>
	<path id="Path_823" class="st0" d="M-1206.143-9.023l0.1,0.286h0.3c0.023,0.001,0.04,0.02,0.039,0.043
		c0,0.012-0.006,0.023-0.015,0.03l-0.243,0.179l0.091,0.288c0.006,0.022-0.007,0.044-0.029,0.05
		c-0.011,0.003-0.023,0.001-0.033-0.005l-0.245-0.175l-0.245,0.175c-0.019,0.012-0.044,0.007-0.057-0.012
		c-0.006-0.01-0.008-0.022-0.005-0.033l0.091-0.288l-0.243-0.179c-0.018-0.014-0.021-0.04-0.006-0.058
		c0.007-0.009,0.019-0.015,0.031-0.015h0.3l0.1-0.286c0.012-0.019,0.037-0.025,0.056-0.014
		C-1206.151-9.033-1206.146-9.029-1206.143-9.023z"/>
	<path id="Path_824" class="st0" d="M-1204.981-14.277l0.1,0.286h0.3c0.023,0.001,0.04,0.02,0.039,0.043
		c0,0.012-0.006,0.023-0.015,0.03l-0.243,0.179l0.091,0.288c0.006,0.022-0.007,0.044-0.029,0.05
		c-0.011,0.003-0.023,0.001-0.033-0.005l-0.245-0.175l-0.245,0.175c-0.019,0.012-0.044,0.007-0.057-0.012
		c-0.006-0.01-0.008-0.022-0.005-0.033l0.091-0.288l-0.243-0.179c-0.018-0.014-0.021-0.04-0.006-0.058
		c0.007-0.009,0.019-0.015,0.031-0.015h0.3l0.1-0.286c0.012-0.019,0.037-0.025,0.056-0.014
		C-1204.989-14.287-1204.984-14.283-1204.981-14.277z"/>
	<path id="Path_825" class="st0" d="M-1204.981-12.779l0.1,0.286h0.3c0.023,0.001,0.04,0.02,0.039,0.043
		c0,0.012-0.006,0.023-0.015,0.03l-0.243,0.179l0.091,0.288c0.006,0.022-0.007,0.044-0.029,0.05
		c-0.011,0.003-0.023,0.001-0.033-0.005l-0.245-0.175l-0.245,0.175c-0.019,0.012-0.044,0.007-0.057-0.012
		c-0.006-0.01-0.008-0.022-0.005-0.033l0.091-0.288l-0.243-0.179c-0.018-0.014-0.021-0.04-0.006-0.058
		c0.007-0.009,0.019-0.015,0.031-0.015h0.3l0.1-0.286c0.012-0.019,0.037-0.025,0.056-0.014
		C-1204.989-12.789-1204.984-12.785-1204.981-12.779z"/>
	<path id="Path_826" class="st0" d="M-1204.981-11.282l0.1,0.286h0.3c0.023,0.001,0.04,0.02,0.039,0.043
		c0,0.012-0.006,0.023-0.015,0.03l-0.243,0.179l0.091,0.288c0.006,0.022-0.007,0.044-0.029,0.05
		c-0.011,0.003-0.023,0.001-0.033-0.005l-0.245-0.175l-0.245,0.175c-0.019,0.012-0.044,0.007-0.057-0.012
		c-0.006-0.01-0.008-0.022-0.005-0.033l0.091-0.288l-0.243-0.179c-0.018-0.014-0.021-0.04-0.006-0.058
		c0.007-0.009,0.019-0.015,0.031-0.015h0.3l0.1-0.286c0.012-0.019,0.037-0.025,0.056-0.014
		C-1204.989-11.292-1204.984-11.288-1204.981-11.282z"/>
	<path id="Path_827" class="st0" d="M-1204.981-9.786l0.1,0.286h0.3c0.023,0.001,0.04,0.02,0.039,0.043
		c0,0.012-0.006,0.023-0.015,0.03l-0.243,0.179l0.091,0.288c0.006,0.022-0.007,0.044-0.029,0.05
		c-0.011,0.003-0.023,0.001-0.033-0.005l-0.245-0.175l-0.245,0.175c-0.019,0.012-0.044,0.007-0.057-0.012
		c-0.006-0.01-0.008-0.022-0.005-0.033l0.091-0.288l-0.243-0.179c-0.018-0.014-0.021-0.04-0.006-0.058
		c0.007-0.009,0.019-0.015,0.031-0.015h0.3l0.1-0.286c0.012-0.019,0.037-0.025,0.056-0.014
		C-1204.989-9.796-1204.984-9.792-1204.981-9.786z"/>
	<path id="Path_828" class="st0" d="M-1203.819-15.007l0.1,0.286h0.3c0.023,0.001,0.04,0.02,0.039,0.043
		c0,0.012-0.006,0.023-0.015,0.03l-0.243,0.179l0.091,0.288c0.006,0.022-0.007,0.044-0.029,0.05
		c-0.011,0.003-0.023,0.001-0.033-0.005l-0.245-0.175l-0.245,0.175c-0.019,0.012-0.044,0.007-0.057-0.012
		c-0.006-0.01-0.008-0.022-0.005-0.033l0.091-0.288l-0.243-0.179c-0.018-0.014-0.021-0.04-0.006-0.058
		c0.007-0.009,0.019-0.015,0.031-0.015h0.3l0.1-0.286c0.012-0.019,0.037-0.025,0.056-0.014
		C-1203.827-15.017-1203.822-15.013-1203.819-15.007z"/>
	<path id="Path_829" class="st0" d="M-1203.819-13.514l0.1,0.286h0.3c0.023,0.001,0.04,0.02,0.039,0.043
		c0,0.012-0.006,0.023-0.015,0.03l-0.243,0.179l0.091,0.288c0.006,0.022-0.007,0.044-0.029,0.05
		c-0.011,0.003-0.023,0.001-0.033-0.005l-0.245-0.175l-0.245,0.175c-0.019,0.012-0.044,0.007-0.057-0.012
		c-0.006-0.01-0.008-0.022-0.005-0.033l0.091-0.288l-0.243-0.179c-0.018-0.014-0.021-0.04-0.006-0.058
		c0.007-0.009,0.019-0.015,0.031-0.015h0.3l0.1-0.286c0.012-0.019,0.037-0.025,0.056-0.014
		C-1203.827-13.524-1203.822-13.52-1203.819-13.514z"/>
	<path id="Path_830" class="st0" d="M-1203.819-12.017l0.1,0.286h0.3c0.023,0.001,0.04,0.02,0.039,0.043
		c0,0.012-0.006,0.023-0.015,0.03l-0.243,0.179l0.091,0.288c0.006,0.022-0.007,0.044-0.029,0.05
		c-0.011,0.003-0.023,0.001-0.033-0.005l-0.245-0.175l-0.245,0.175c-0.019,0.012-0.044,0.007-0.057-0.012
		c-0.006-0.01-0.008-0.022-0.005-0.033l0.091-0.288l-0.243-0.179c-0.018-0.014-0.021-0.04-0.006-0.058
		c0.007-0.009,0.019-0.015,0.031-0.015h0.3l0.1-0.286c0.012-0.019,0.037-0.025,0.056-0.014
		C-1203.827-12.027-1203.822-12.023-1203.819-12.017z"/>
	<path id="Path_831" class="st0" d="M-1203.819-10.519l0.1,0.286h0.3c0.023,0.001,0.04,0.02,0.039,0.043
		c0,0.012-0.006,0.023-0.015,0.03l-0.243,0.179l0.091,0.287c0.006,0.022-0.007,0.044-0.029,0.05
		c-0.011,0.003-0.023,0.001-0.033-0.005l-0.245-0.175l-0.245,0.175c-0.019,0.012-0.044,0.007-0.057-0.012
		c-0.006-0.01-0.008-0.022-0.005-0.033l0.091-0.287l-0.243-0.179c-0.018-0.014-0.021-0.04-0.006-0.058
		c0.007-0.009,0.019-0.015,0.031-0.015h0.3l0.1-0.286c0.012-0.019,0.037-0.025,0.056-0.014
		C-1203.827-10.529-1203.822-10.525-1203.819-10.519z"/>
	<path id="Path_832" class="st0" d="M-1203.819-9.023l0.1,0.286h0.3c0.023,0.001,0.04,0.02,0.039,0.043
		c0,0.012-0.006,0.023-0.015,0.03l-0.243,0.179l0.091,0.288c0.006,0.022-0.007,0.044-0.029,0.05
		c-0.011,0.003-0.023,0.001-0.033-0.005l-0.245-0.175l-0.245,0.175c-0.019,0.012-0.044,0.007-0.057-0.012
		c-0.006-0.01-0.008-0.022-0.005-0.033l0.091-0.288l-0.243-0.179c-0.018-0.014-0.021-0.04-0.006-0.058
		c0.007-0.009,0.019-0.015,0.031-0.015h0.3l0.1-0.286c0.012-0.019,0.037-0.025,0.056-0.014
		C-1203.827-9.033-1203.822-9.029-1203.819-9.023z"/>
	<path id="Path_833" class="st0" d="M-1202.657-14.277l0.1,0.286h0.3c0.023,0.001,0.04,0.02,0.039,0.043
		c0,0.012-0.006,0.023-0.015,0.03l-0.243,0.179l0.091,0.288c0.006,0.022-0.007,0.044-0.029,0.05
		c-0.011,0.003-0.023,0.001-0.033-0.005l-0.245-0.175l-0.245,0.175c-0.019,0.012-0.044,0.007-0.057-0.012
		c-0.006-0.01-0.008-0.022-0.005-0.033l0.091-0.288l-0.243-0.179c-0.018-0.014-0.021-0.04-0.006-0.058
		c0.007-0.009,0.019-0.015,0.03-0.015h0.3l0.1-0.286c0.012-0.019,0.037-0.025,0.056-0.014
		C-1202.665-14.287-1202.66-14.283-1202.657-14.277z"/>
	<path id="Path_834" class="st0" d="M-1202.657-12.779l0.1,0.286h0.3c0.023,0.001,0.04,0.02,0.039,0.043
		c0,0.012-0.006,0.023-0.015,0.03l-0.243,0.179l0.091,0.288c0.006,0.022-0.007,0.044-0.029,0.05
		c-0.011,0.003-0.023,0.001-0.033-0.005l-0.245-0.175l-0.245,0.175c-0.019,0.012-0.044,0.007-0.057-0.012
		c-0.006-0.01-0.008-0.022-0.005-0.033l0.091-0.288l-0.243-0.179c-0.018-0.014-0.021-0.04-0.006-0.058
		c0.007-0.009,0.019-0.015,0.03-0.015h0.3l0.1-0.286c0.012-0.019,0.037-0.025,0.056-0.014
		C-1202.665-12.789-1202.66-12.785-1202.657-12.779z"/>
	<path id="Path_835" class="st0" d="M-1202.657-11.282l0.1,0.286h0.3c0.023,0.001,0.04,0.02,0.039,0.043
		c0,0.012-0.006,0.023-0.015,0.03l-0.243,0.179l0.091,0.288c0.006,0.022-0.007,0.044-0.029,0.05
		c-0.011,0.003-0.023,0.001-0.033-0.005l-0.245-0.175l-0.245,0.175c-0.019,0.012-0.044,0.007-0.057-0.012
		c-0.006-0.01-0.008-0.022-0.005-0.033l0.091-0.288l-0.243-0.179c-0.018-0.014-0.021-0.04-0.006-0.058
		c0.007-0.009,0.019-0.015,0.03-0.015h0.3l0.1-0.286c0.012-0.019,0.037-0.025,0.056-0.014
		C-1202.665-11.292-1202.66-11.288-1202.657-11.282z"/>
	<path id="Path_836" class="st0" d="M-1202.657-9.786l0.1,0.286h0.3c0.023,0.001,0.04,0.02,0.039,0.043
		c0,0.012-0.006,0.023-0.015,0.03l-0.243,0.179l0.091,0.288c0.006,0.022-0.007,0.044-0.029,0.05
		c-0.011,0.003-0.023,0.001-0.033-0.005l-0.245-0.175l-0.245,0.175c-0.019,0.012-0.044,0.007-0.057-0.012
		c-0.006-0.01-0.008-0.022-0.005-0.033l0.091-0.288l-0.243-0.179c-0.018-0.014-0.021-0.04-0.006-0.058
		c0.007-0.009,0.019-0.015,0.03-0.015h0.3l0.1-0.286c0.012-0.019,0.037-0.025,0.056-0.014
		C-1202.665-9.796-1202.66-9.792-1202.657-9.786z"/>
	<path id="Path_837" class="st0" d="M-1201.495-15.007l0.1,0.286h0.3c0.023,0.001,0.04,0.02,0.039,0.043
		c0,0.012-0.006,0.023-0.015,0.03l-0.243,0.179l0.091,0.288c0.006,0.022-0.007,0.044-0.029,0.05
		c-0.011,0.003-0.023,0.001-0.033-0.005l-0.245-0.175l-0.245,0.175c-0.019,0.012-0.044,0.007-0.057-0.012
		c-0.006-0.01-0.008-0.022-0.005-0.033l0.091-0.288l-0.243-0.179c-0.018-0.014-0.021-0.04-0.006-0.058
		c0.007-0.009,0.019-0.015,0.03-0.015h0.3l0.1-0.286c0.012-0.019,0.037-0.025,0.056-0.014
		C-1201.503-15.017-1201.498-15.013-1201.495-15.007z"/>
	<path id="Path_838" class="st0" d="M-1201.495-13.514l0.1,0.286h0.3c0.023,0.001,0.04,0.02,0.039,0.043
		c0,0.012-0.006,0.023-0.015,0.03l-0.243,0.179l0.091,0.288c0.006,0.022-0.007,0.044-0.029,0.05
		c-0.011,0.003-0.023,0.001-0.033-0.005l-0.245-0.175l-0.245,0.175c-0.019,0.012-0.044,0.007-0.057-0.012
		c-0.006-0.01-0.008-0.022-0.005-0.033l0.091-0.288l-0.243-0.179c-0.018-0.014-0.021-0.04-0.006-0.058
		c0.007-0.009,0.019-0.015,0.03-0.015h0.3l0.1-0.286c0.012-0.019,0.037-0.025,0.056-0.014
		C-1201.503-13.524-1201.498-13.52-1201.495-13.514z"/>
	<path id="Path_839" class="st0" d="M-1201.495-12.017l0.1,0.286h0.3c0.023,0.001,0.04,0.02,0.039,0.043
		c0,0.012-0.006,0.023-0.015,0.03l-0.243,0.179l0.091,0.288c0.006,0.022-0.007,0.044-0.029,0.05
		c-0.011,0.003-0.023,0.001-0.033-0.005l-0.245-0.175l-0.245,0.175c-0.019,0.012-0.044,0.007-0.057-0.012
		c-0.006-0.01-0.008-0.022-0.005-0.033l0.091-0.288l-0.243-0.179c-0.018-0.014-0.021-0.04-0.006-0.058
		c0.007-0.009,0.019-0.015,0.03-0.015h0.3l0.1-0.286c0.012-0.019,0.037-0.025,0.056-0.014
		C-1201.503-12.027-1201.498-12.023-1201.495-12.017z"/>
	<path id="Path_840" class="st0" d="M-1201.495-10.519l0.1,0.286h0.3c0.023,0.001,0.04,0.02,0.039,0.043
		c0,0.012-0.006,0.023-0.015,0.03l-0.243,0.179l0.091,0.287c0.006,0.022-0.007,0.044-0.029,0.05
		c-0.011,0.003-0.023,0.001-0.033-0.005l-0.245-0.175l-0.245,0.175c-0.019,0.012-0.044,0.007-0.057-0.012
		c-0.006-0.01-0.008-0.022-0.005-0.033l0.091-0.287l-0.243-0.179c-0.018-0.014-0.021-0.04-0.006-0.058
		c0.007-0.009,0.019-0.015,0.03-0.015h0.3l0.1-0.286c0.012-0.019,0.037-0.025,0.056-0.014
		C-1201.503-10.529-1201.498-10.525-1201.495-10.519z"/>
	<path id="Path_841" class="st0" d="M-1201.495-9.023l0.1,0.286h0.3c0.023,0.001,0.04,0.02,0.039,0.043
		c0,0.012-0.006,0.023-0.015,0.03l-0.243,0.179l0.091,0.288c0.006,0.022-0.007,0.044-0.029,0.05
		c-0.011,0.003-0.023,0.001-0.033-0.005l-0.245-0.175l-0.245,0.175c-0.019,0.012-0.044,0.007-0.057-0.012
		c-0.006-0.01-0.008-0.022-0.005-0.033l0.091-0.288l-0.243-0.179c-0.018-0.014-0.021-0.04-0.006-0.058
		c0.007-0.009,0.019-0.015,0.03-0.015h0.3l0.1-0.286c0.012-0.019,0.037-0.025,0.056-0.014
		C-1201.503-9.033-1201.498-9.029-1201.495-9.023z"/>
</g>
</svg>
