<svg xmlns="http://www.w3.org/2000/svg" viewBox="0 0 18.218 16"><defs><style>.a{fill:#403f4c;}</style></defs><g transform="translate(-1.046 -6.975)"><path class="a" d="M19.023,14.01,10.56,7.128a.622.622,0,0,0-.818,0L1.3,14.01a.61.61,0,0,0-.2.725.626.626,0,0,0,.614.428H4.088v7.161a.659.659,0,0,0,.651.651H15.582a.659.659,0,0,0,.651-.651V15.163h2.381a.643.643,0,0,0,.614-.428A.684.684,0,0,0,19.023,14.01Zm-7.849,4.52v3.162H9.128V18.53Zm.651-1.3H8.477a.659.659,0,0,0-.651.651v3.813H5.371V14.531a.659.659,0,0,0-.651-.651H3.511l6.64-5.394,6.64,5.394H15.582a.659.659,0,0,0-.651.651v7.161H12.476V17.879A.647.647,0,0,0,11.825,17.228Z" transform="translate(0)"/></g></svg>