<?xml version="1.0" encoding="utf-8"?>
<!-- Generator: Adobe Illustrator 23.0.1, SVG Export Plug-In . SVG Version: 6.00 Build 0)  -->
<svg version="1.1" id="Layer_1" xmlns="http://www.w3.org/2000/svg" xmlns:xlink="http://www.w3.org/1999/xlink" x="0px" y="0px"
	 viewBox="0 0 30 30" style="enable-background:new 0 0 30 30;" xml:space="preserve">
<style type="text/css">
	.st0{fill:#004FFF;}
</style>
<path class="st0" d="M15,0.5C6.9918823,0.5,0.5,6.9918823,0.5,15S6.9918823,29.5,15,29.5
	c8.0044556-0.0087891,14.4912109-6.4955444,14.5-14.5C29.5,6.9918823,23.0081177,0.5,15,0.5z M22.2680054,21.4089966
	c-0.9597168-0.552002-1.9788818-0.9934692-3.0380249-1.315979c0.1699829-1.472229,0.2640991-2.9521484,0.2820435-4.434021h3.9099731
	c-0.0568237,1.9672241-0.4473267,3.9105835-1.1549683,5.7470093L22.2680054,21.4089966z M12.052002,19.7540283
	c-0.1430054-1.2470093-0.2340088-2.618042-0.2550049-4.1000366h6.3930054
	c-0.0219727,1.4830322-0.1119995,2.8549805-0.2550049,4.1000366c-0.9676514-0.1990967-1.953125-0.298645-2.940979-0.2970581
	v-0.0029907C14.0056763,19.4534302,13.0198975,19.5539551,12.052002,19.7540283z M11.7940063,14.3380127
	c0.0164185-1.3875122,0.1028442-2.7732544,0.2589722-4.1520386c0.9658813,0.2000732,1.949707,0.3005981,2.9360352,0.3000488
	c0.9866333,0.0005493,1.9708252-0.0999756,2.9370117-0.3000488c0.1564331,1.3787842,0.2432251,2.7645264,0.2599487,4.1520386
	H11.7940063z M17.3120117,2.8400269c1.940979,0.9460449,3.4931641,2.536499,4.3921509,4.4994507
	c-0.8391113,0.498291-1.7317505,0.9005127-2.6611328,1.1985474C18.7992554,6.5529785,18.213562,4.6251831,17.3120117,2.8400269z
	 M17.7559814,8.8800049c-0.9082642,0.190918-1.8338623,0.2871094-2.7619629,0.2869873
	c-0.9281616,0.000061-1.8537598-0.0961304-2.7620239-0.2869873c0.6409912-4.1040039,1.8460083-6.5350342,2.7620239-6.5350342
	v-0.006958C15.9110107,2.3380127,17.1160278,4.7689819,17.7559814,8.8800049z M10.947998,8.5469971
	C10.0172729,8.2486572,9.123291,7.8461304,8.28302,7.3469849c0.8982544-1.9657593,2.451416-3.5584717,4.3937378-4.5062866
	C11.7749023,4.62854,11.1900024,6.5592651,10.947998,8.5469971z M10.7659912,9.8560181
	c-0.1741333,1.4886475-0.2713013,2.9852905-0.2910156,4.4840088H6.5679932
	c0.0562134-1.9831543,0.4522705-3.9418945,1.1710205-5.7910156C8.6956177,9.0971069,9.7110596,9.5355835,10.7659912,9.8560181z
	 M10.4749756,15.6589966c0.0192871,1.4822388,0.1143799,2.9625244,0.2850342,4.4349976
	c-1.0593262,0.321106-2.0788574,0.7612305-3.0390015,1.3120117c-0.7068481-1.8366089-1.0967407-3.7799072-1.1530151-5.7470093
	H10.4749756z M10.9400024,21.4000244c0.2410889,2.0058594,0.8291626,3.9545898,1.7379761,5.7589722
	c-1.9561768-0.9547119-3.5180054-2.5620728-4.4159546-4.5449829C9.105957,22.1094971,10.0043335,21.7022095,10.9400024,21.4000244z
	 M12.2249756,21.0620117c1.8260498-0.3841553,3.7120361-0.3841553,5.5380249,0
	c-0.6370239,4.1439819-1.8510132,6.59198-2.7689819,6.59198C14.0739746,27.6539917,12.8629761,25.2030029,12.2249756,21.0620117z
	 M19.0510254,21.4000244c0.9359131,0.3014526,1.8344116,0.7087402,2.6779785,1.2139893
	c-0.8981323,1.9831543-2.4603271,3.5905762-4.4169922,4.5449829C18.2216187,25.3548584,18.8101196,23.4060669,19.0510254,21.4000244
	z M19.5120239,14.3410034c-0.0194092-1.4987183-0.1165161-2.9953613-0.2910156-4.4840088
	c1.0553589-0.3205566,2.071167-0.7593384,3.0280151-1.3079834c0.7193604,1.8493652,1.1161499,3.8084717,1.1729736,5.7919922
	H19.5120239z M19.701355,2.835022c1.6271362,0.6305542,3.0956421,1.5724487,4.3319092,2.7601929
	c-0.3954468,0.3674316-0.8044434,0.7198486-1.241272,1.0377808C21.9658203,5.074585,20.9078369,3.7862549,19.701355,2.835022z
	 M7.1920166,6.6329956C6.756897,6.3156738,6.3497314,5.9638062,5.9561768,5.5969849
	c1.2341309-1.1872559,2.7004395-2.1290894,4.3251953-2.7600098C9.0764771,3.7879639,8.0194092,5.0753784,7.1920166,6.6329956z
	 M6.6229858,7.8439941c-0.8540039,2.0640869-1.3226929,4.2670898-1.3829956,6.5H1.9771118
	c0.1478271-2.9665527,1.2748413-5.6715088,3.0792236-7.7929688C5.5516968,7.013855,6.0671387,7.4545898,6.6229858,7.8439941z
	 M5.2390137,15.6630249c0.0606689,2.2160645,0.5238647,4.4026489,1.3670044,6.4530029
	c-0.5593262,0.3927002-1.0777588,0.8372803-1.5758057,1.3041992c-1.7883911-2.1152954-2.9042358-4.8071899-3.0527954-7.7572021
	H5.2390137z M7.177002,23.3300171c0.8288574,1.5744629,1.8931274,2.8757324,3.1081543,3.8342896
	c-1.6380005-0.635498-3.1159668-1.5860596-4.3565063-2.7863159C6.3260498,24.0068359,6.7373047,23.6508179,7.177002,23.3300171z
	 M22.8120117,23.3300171c0.4417114,0.3222656,0.8547363,0.6800537,1.2537231,1.0531006
	c-1.2445679,1.2026978-2.7276001,2.1541138-4.3712158,2.7886353C20.9135742,26.2125854,21.9811401,24.9083862,22.8120117,23.3300171
	z M23.3839722,22.1160278c0.8433228-2.0516357,1.3062134-4.239624,1.3660278-6.4570312h3.2727661
	c-0.1478271,2.9541016-1.2659302,5.649353-3.0577393,7.7664185C24.4653931,22.956665,23.9452515,22.5103149,23.3839722,22.1160278z
	 M24.75,14.3410034c-0.0599365-2.2329712-0.5286865-4.4360352-1.3829956-6.5
	c0.5560303-0.3890381,1.0717773-0.8293457,1.5673828-1.291748c1.8063965,2.1208496,2.9362183,4.8251343,3.0877075,7.791748H24.75z"
	/>
</svg>
