<?xml version="1.0" encoding="utf-8"?>
<!-- Generator: Adobe Illustrator 23.0.1, SVG Export Plug-In . SVG Version: 6.00 Build 0)  -->
<svg version="1.1" id="Layer_1" xmlns="http://www.w3.org/2000/svg" xmlns:xlink="http://www.w3.org/1999/xlink" x="0px" y="0px"
	 viewBox="0 0 30 30" style="enable-background:new 0 0 30 30;" xml:space="preserve">
<style type="text/css">
	.st0{fill:#004FFF;}
</style>
<g>
	<path id="Path_9711" class="st0" d="M22.2601109,4.3246717h-0.0098553H22.2601109z"/>
	<path id="Path_9719" class="st0" d="M20.370924,16.7960587c-1.2553463-0.6923962-2.6660061-1.0545578-4.0996418-1.0525045
		h-2.5130005c-4.6126947,0.0178194-8.347908,3.7521524-8.3668165,8.3648443v1.1934299
		c0.0021715,1.6602154,1.3475013,3.0055466,3.0077181,3.0077171h13.2055759
		c1.6383476-0.0119553,2.9692822-1.3262844,3.0018044-2.9643555v-1.6447849h0.0019722
		c-0.1095009-2.3083286-1.1701736-4.4682102-2.9298649-5.9661598C21.2643375,17.3924789,20.8274307,17.0790405,20.370924,16.7960587
		z M22.5823669,24.1083984v1.1934299c0,0.5393715-0.4372482,0.9766197-0.9766216,0.9766197H8.3991833
		c-0.5393729,0-0.9766212-0.4372482-0.9766216-0.9766197v-1.1934299c0.0070581-3.5006809,2.8448915-6.3358669,6.3455753-6.3396626
		h2.5189133c3.4783821,0.0361156,6.2818546,2.861105,6.2913742,6.3396626H22.5823669z"/>
	<path class="st0" d="M15.0058947,1.6904552C11.2909355,1.691538,8.2799683,4.7034078,8.2799683,8.4184265
		c-0.0006018,3.7151985,3.0107269,6.7273693,6.7259264,6.7279119c0.0013227,0,0.0026464,0,0.0039701,0
		c3.7157402-0.0010843,6.7270679-3.0141563,6.7259865-6.7298965C21.7347679,4.7007008,18.7216358,1.6893719,15.0058947,1.6904552z
		 M15.0078802,13.2035656c-2.6427927,0-4.7852001-2.1423473-4.7852001-4.7851391s2.1424074-4.7852001,4.7852001-4.7852001
		s4.7851992,2.1424077,4.7851992,4.7852001S17.650671,13.2035656,15.0078802,13.2035656z"/>
</g>
</svg>
