<?xml version="1.0" encoding="utf-8"?>
<!-- Generator: Adobe Illustrator 23.0.1, SVG Export Plug-In . SVG Version: 6.00 Build 0)  -->
<svg version="1.1" id="Layer_1" xmlns="http://www.w3.org/2000/svg" xmlns:xlink="http://www.w3.org/1999/xlink" x="0px" y="0px"
	 viewBox="0 0 30 30" style="enable-background:new 0 0 30 30;" xml:space="preserve">
<style type="text/css">
	.st0{fill:#004FFF;}
</style>
<path class="st0" d="M29.4900513,9.9609909c0.0175171-0.1381836,0.0032349-0.2786255-0.041687-0.4105225
	c-0.2418823-1.4867554-1.5233154-2.580688-3.0296021-2.5864253h-4.614624C21.5358887,3.5900807,19.4587402,2.1319509,15,2.1319509
	S8.4631958,3.5900807,8.1949463,6.9640431H3.5812378C2.0754395,6.9691091,0.7938843,8.0617599,0.5507202,9.5477829
	c-0.0452271,0.1327515-0.0595093,0.2741089-0.041687,0.413208c0,0.0308228-0.0090332,0.05896-0.0090332,0.0906372v15.0609741
	c0.003479,1.7003174,1.3809814,3.0777588,3.0812378,3.0812378h22.8375244
	c1.7000732-0.0039673,3.0772705-1.3811646,3.0812378-3.0812378V10.0516281
	C29.5,10.0172043,29.4918213,9.9891281,29.4900513,9.9609909z M15,4.5497975c3.7446289,0,4.3128662,1.0168457,4.3998413,2.4142456
	h-8.7996826C10.6871338,5.5666432,11.2553711,4.5497975,15,4.5497975z M3.5812378,8.7828903h22.8375244
	c0.5588379,0.0026855,1.0501709,0.3706665,1.2098389,0.90625l-2.4604492,4.2856445
	c-0.560791,0.8326416-1.4736328,1.3607788-2.4749756,1.4318848h-4.5720215v-0.4748535
	c0-1.1011353-0.8926392-1.9937744-1.9937744-1.9937744h-2.2538452c-1.1011353,0-1.9937744,0.8926392-1.9937744,1.9937744v0.4748535
	H7.3077393c-1.0013428-0.071106-1.9141846-0.5992432-2.4749756-1.4318848L2.3713989,9.6891403
	C2.5310669,9.1535568,3.0223999,8.7855759,3.5812378,8.7828903z M16.3068237,14.9327316l-0.0036621,0.0045166v3.3585815
	c0,0.1000977-0.0811157,0.1812134-0.1812134,0.1812134h-2.2484131c-0.1000977,0-0.1812744-0.0811157-0.1812744-0.1812134v-3.3630981
	c0-0.1000977,0.0811768-0.1812744,0.1812744-0.1812744h2.2520142C16.225647,14.7514572,16.3068237,14.832634,16.3068237,14.9327316z
	 M27.6875,25.1126022c0.0004883,0.7007446-0.5671387,1.269165-1.2678223,1.2696533c-0.0003052,0-0.0006104,0-0.0009155,0H3.5812378
	c-0.7006836,0-1.2687378-0.5679932-1.2687378-1.2687378V13.2335129l0.946106,1.6448364
	c0.8895874,1.3912964,2.3987427,2.2645874,4.0482178,2.3426514h4.571167v1.0693359
	c0,1.1011353,0.8926392,1.9937744,1.9937134,1.9937744h2.2520752c1.1010742,0,1.9937134-0.8926392,1.9937134-1.9937134v-0.000061
	v-1.0693359h4.5720215c1.649292-0.0780029,3.1582031-0.951416,4.0473022-2.3426514L27.6875,13.2335129V25.1126022z"/>
</svg>
