<?xml version="1.0" encoding="utf-8"?>
<!-- Generator: Adobe Illustrator 23.0.1, SVG Export Plug-In . SVG Version: 6.00 Build 0)  -->
<svg version="1.1" id="Layer_1" xmlns="http://www.w3.org/2000/svg" xmlns:xlink="http://www.w3.org/1999/xlink" x="0px" y="0px"
	 viewBox="0 0 30 30" style="enable-background:new 0 0 30 30;" xml:space="preserve">
<style type="text/css">
	.st0{fill:#004FFF;}
	.st1{fill-rule:evenodd;clip-rule:evenodd;fill:#004FFF;}
</style>
<g id="noun_user_manual_1866762" transform="translate(-2.3 -0.8)">
	<g id="Group_2093" transform="translate(2.5 1)">
		<path class="st0" d="M3.5988281,23.4289055c0.0014648,2.0644531,1.683594,3.7470703,3.7485354,3.75h17.6508789
			c0.5537109,0,1.0039062-0.4511719,1.0039062-1.0048828s-0.4501953-1.0039062-1.0039062-1.0039062H7.3473635
			c-0.4692383-0.0107422-0.9023438-0.2011719-1.2241211-0.5390625c-0.3208008-0.3359375-0.4916992-0.7783203-0.480957-1.2431641
			c0.0219727-0.9326172,0.7695312-1.6796875,1.7011719-1.7011719h17.6547852c0.5517578,0,1.0019531-0.4492188,1.0029297-1.0009766
			V3.425c0-0.5532227-0.4501953-1.0029297-1.0029297-1.0029297H7.3473635
			C5.2824221,2.4240234,3.6002929,4.1061525,3.5988281,6.1706057V23.4289055z M5.6056643,6.1706057
			C5.6071291,5.211133,6.3878908,4.4303713,7.3473635,4.4289064h16.6469727v15.249999H7.3473635
			c-0.5195312,0.0009766-1.0239258,0.1083984-1.4980469,0.3183594l-0.2436523,0.1074219V6.1706057z"/>
		<path class="st1" d="M19.1359367,7.476758l-5.5605459,5.5605469l-1.8251953-1.8256836
			c-0.2001953-0.1914062-0.4584961-0.2949219-0.7319336-0.2949219c-0.0083008,0-0.0166016,0-0.0244141,0.0004883
			c-0.2827148,0.0063477-0.5458984,0.1220703-0.7412109,0.3266602c-0.402832,0.4213867-0.387207,1.0922852,0.034668,1.4956055
			l2.503418,2.5102539c0.0195312,0.0336914,0.0415039,0.0668945,0.0649414,0.0976562
			c0.0952148,0.0908203,0.2290039,0.1738281,0.378418,0.2270508c0.4047852,0.1674805,0.8569336,0.0791016,1.1606445-0.2246094
			l0.0458984-0.0683594l6.2509756-6.2504883c0.2070312-0.2075195,0.3212891-0.4833984,0.3212891-0.7768555
			S20.898632,7.6842775,20.6916008,7.476758C20.2609367,7.0480471,19.5646477,7.0495119,19.1359367,7.476758z"/>
	</g>
</g>
</svg>
