<?xml version="1.0" encoding="utf-8"?>
<!-- Generator: Adobe Illustrator 23.0.1, SVG Export Plug-In . SVG Version: 6.00 Build 0)  -->
<svg version="1.1" id="Layer_1" xmlns="http://www.w3.org/2000/svg" xmlns:xlink="http://www.w3.org/1999/xlink" x="0px" y="0px"
	 viewBox="0 0 30 30" style="enable-background:new 0 0 30 30;" xml:space="preserve">
<style type="text/css">
	.st0{fill:#004FFF;}
</style>
<g id="noun_contract_564782" transform="translate(-6.683 -1.8)">
	<g id="Group_2157" transform="translate(6.882 2)">
		<path id="Path_8111" class="st0" d="M25.4953785,5.4050269l-4.3917179-4.3927355
			c-0.4521561-0.4575758-1.0692406-0.7142353-1.7125244-0.7122805H5.8140545c-1.3341246,0-2.4156489,1.0815225-2.4156489,2.4156482
			l0,0v24.1686916c0.0022397,1.3331966,1.0824518,2.4134083,2.4156489,2.4156475h17.9738846
			c1.3331985-0.0022392,2.4134064-1.0824509,2.4156494-2.4156475V7.1114473
			C26.2049866,6.4708652,25.9499474,5.85637,25.4953785,5.4050269z M20.8645363,3.0473783l2.5865955,2.5865953h-2.5865955V3.0473783
			z M24.5928173,26.8853683c0.0005589,0.4439583-0.3588791,0.8043137-0.8028431,0.8048763c-0.0006752,0-0.001358,0-0.0020351,0
			H5.8140545c-0.4439602,0.0005646-0.8043146-0.358881-0.8048773-0.8028393c0-0.000679,0-0.001358,0-0.002037V2.7156594
			c-0.0005627-0.443959,0.3588829-0.8043145,0.8028393-0.8048768c0.0006795-0.000001,0.0013585-0.000001,0.002038,0h13.4407349
			v4.5331564c-0.0005589,0.4439592,0.3588791,0.8043141,0.8028431,0.8048773c0.0006752,0.000001,0.0013599,0.000001,0.0020351,0
			h4.5331573L24.5928173,26.8853683z"/>
		<path id="Path_8112" class="st0" d="M12.1513119,23.9212856H7.2406507c-0.4445229,0-0.8048773,0.3603687-0.8048773,0.8048916
			c0,0.4444923,0.3603544,0.804863,0.8048773,0.804863l0,0h4.9106688c0.4445229,0,0.8048773-0.3603706,0.8048773-0.804863
			C12.9561968,24.2816544,12.5958424,23.9212856,12.1513119,23.9212856z"/>
		<path id="Path_8113" class="st0" d="M7.2467527,20.5704842h9.8213301c0.4448032,0,0.8053894-0.3605862,0.8053894-0.8053894
			s-0.3605862-0.8053894-0.8053894-0.8053894l0,0H7.2467527c-0.4448028,0-0.8053899,0.3605862-0.8053899,0.8053894
			S6.80195,20.5704842,7.2467527,20.5704842z"/>
		<path id="Path_8114" class="st0" d="M22.355238,13.9981718H7.2467527c-0.4445233,0-0.8048773,0.3603535-0.8048773,0.8048773
			c0,0.4445229,0.3603539,0.8048773,0.8048773,0.8048773l0,0H22.360323c0.4439564,0.0005589,0.8043175-0.3588791,0.8048763-0.802844
			c0-0.0006828,0-0.0013504,0-0.0020332C23.1602077,14.358634,22.799675,14.0003605,22.355238,13.9981718z"/>
		<path id="Path_8115" class="st0" d="M6.4418755,9.8405056c-0.0005589,0.443964,0.3588791,0.8043184,0.8028431,0.8048773
			c0.0006757,0,0.0013585,0,0.0020342,0H22.360323c0.4445229,0,0.8048763-0.3603535,0.8048763-0.8048773
			c0-0.4445229-0.3603535-0.8048773-0.8048763-0.8048773H7.2467527c-0.4439564-0.0005589-0.8043184,0.3588791-0.8048773,0.802844
			C6.4418755,9.8391552,6.4418755,9.8398228,6.4418755,9.8405056z"/>
		<path id="Path_8116" class="st0" d="M7.2467527,5.6838341h5.6931572c0.4445229,0,0.8048773-0.3603544,0.8048773-0.8048773
			c0-0.4445233-0.3603544-0.8048773-0.8048773-0.8048773H7.2467527c-0.4445233,0-0.8048773,0.3603539-0.8048773,0.8048773
			C6.4418755,5.3234797,6.8022294,5.6838341,7.2467527,5.6838341L7.2467527,5.6838341z"/>
		<path id="Path_8117" class="st0" d="M21.310236,19.7076149l-4.3052292,4.3052139l-1.981164-1.9811478
			c-0.3027506-0.327795-0.8138981-0.3480721-1.1416931-0.0453053c-0.3277798,0.3027344-0.348073,0.8138981-0.0453062,1.1416607
			c0.0145016,0.0157146,0.029624,0.0308361,0.0453215,0.0453377l2.5519953,2.5519943
			c0.1512585,0.1513214,0.3568916,0.23563,0.5708466,0.2340469c0.2134266-0.0010567,0.4180965-0.0849915,0.5708466-0.2340469
			l4.8760757-4.8760605c0.3116016-0.3167706,0.3116016-0.8249207,0-1.1416931
			c-0.3093815-0.315279-0.8157463-0.3200626-1.1310272-0.0106812C21.3173161,19.7004738,21.3137608,19.7040138,21.310236,19.7076149
			z"/>
	</g>
</g>
</svg>
