<?xml version="1.0" encoding="utf-8"?>
<!-- Generator: Adobe Illustrator 23.0.1, SVG Export Plug-In . SVG Version: 6.00 Build 0)  -->
<svg version="1.1" id="Layer_1" xmlns="http://www.w3.org/2000/svg" xmlns:xlink="http://www.w3.org/1999/xlink" x="0px" y="0px"
	 viewBox="0 0 30 30" style="enable-background:new 0 0 30 30;" xml:space="preserve">
<style type="text/css">
	.st0{fill:#004FFF;}
</style>
<g>
	<path class="st0" d="M14.9995222,26.4377937c-1.2395916,0-2.2445183-1.0049267-2.2445183-2.2445183h-2.4926281
		c-0.0006571,0.045414-0.0006571,0.0908298,0,0.1361847c0.0375872,2.6168022,2.1894226,4.7076855,4.8062248,4.6700401
		c2.6168013-0.0375881,4.7076254-2.1894226,4.6700392-4.8062248h-2.4946594
		C17.2439804,25.4328671,16.2391129,26.4377937,14.9995222,26.4377937z"/>
	<path class="st0" d="M25.225193,17.0364037v-5.8116283C25.225193,5.577775,20.6474781,1,15.0004778,1
		C9.3535376,1,4.7757626,5.577775,4.7757626,11.2247753v5.8116283c-1.7411284,0.3560905-2.9918342,1.887413-2.9929695,3.6645756
		v0.5003414c0.0005378,1.2392921,1.005644,2.2435627,2.2449365,2.2430248h21.9444809c0.0013161,0,0.0026302,0,0.0039444,0
		c1.2382164-0.000597,2.2415905-1.0048084,2.2410526-2.2430248v-0.5002823
		C28.2176857,18.9235783,26.9668007,17.3915386,25.225193,17.0364037z M25.7235641,20.9516582H4.2813363v-0.250679
		c0.0016136-0.6895313,0.5616527-1.2473602,1.2512441-1.2462845c0.9610653-0.0016136,1.7396345-0.7806606,1.7407098-1.7417259
		v-6.4881935c0.1298513-4.0785685,3.4059482-7.3546648,7.4845166-7.4845161
		c4.2694893-0.1358867,7.8407841,3.2150254,7.9767303,7.4845161v6.4881935
		c0.0010757,0.9599304,0.777853,1.7384987,1.7377834,1.7417259c0.0016727,0,0.0032864,0,0.0049,0
		c0.6883354,0,1.2463436,0.5580082,1.2463436,1.2463436V20.9516582z"/>
</g>
</svg>
