<?xml version="1.0" encoding="utf-8"?>
<!-- Generator: Adobe Illustrator 23.0.1, SVG Export Plug-In . SVG Version: 6.00 Build 0)  -->
<svg version="1.1" id="Layer_1" xmlns="http://www.w3.org/2000/svg" xmlns:xlink="http://www.w3.org/1999/xlink" x="0px" y="0px"
	 viewBox="0 0 30 30" style="enable-background:new 0 0 30 30;" xml:space="preserve">
<style type="text/css">
	.st0{fill:#004FFF;}
</style>
<g id="Path_9954">
	<path class="st0" d="M22.5203419,28.8038082c-0.3523426,0-0.7095013-0.0842743-1.0417786-0.2608471l-6.4778137-3.4552078
		l-6.4762077,3.4544048c-0.4386225,0.2327557-0.947072,0.313818-1.4346538,0.2279396
		c-0.5879068-0.1051407-1.0975599-0.4309978-1.4378638-0.9189796c-0.3403039-0.4871807-0.4703259-1.0786991-0.3659873-1.6646004
		l1.288981-7.2210236l-5.2939725-5.0973358c-0.3567573-0.3435144-0.5915188-0.8038073-0.6605427-1.2958031
		c-0.1681454-1.2183523,0.6838182-2.3448067,1.8993613-2.5133533l7.2731924-1.0000439l3.2051973-6.6086369
		c0.2163019-0.4470501,0.5830917-0.8138399,1.0313454-1.0313455c1.1051855-0.5353366,2.4383097-0.0726357,2.9736471,1.0317467
		l3.2051964,6.6086373l7.2703838,1.0020504c0.4948044,0.0690241,0.9550991,0.3037853,1.2990131,0.6613455
		c0.412138,0.4269848,0.6336555,0.9904127,0.6224194,1.5855436c-0.0108337,0.5943279-0.2528191,1.1493282-0.6814098,1.5618658
		l-5.2919655,5.0953293l1.2889805,7.2210236c0.0866814,0.4911938,0.005619,1.0008469-0.2267361,1.4366608
		C24.0898342,28.3744144,23.317728,28.8030052,22.5203419,28.8038082z M15.0007496,22.293087l7.2013607,3.8412609
		l-1.4342537-8.0324554l5.8854923-5.6655788l-8.0878353-1.1144142l-3.564764-7.3502436L11.4359865,11.3223l-8.0894413,1.1120071
		l5.8866959,5.6675854l-1.4334502,8.0324554L15.0007496,22.293087z"/>
</g>
</svg>
