<?xml version="1.0" encoding="utf-8"?>
<!-- Generator: Adobe Illustrator 23.0.1, SVG Export Plug-In . SVG Version: 6.00 Build 0)  -->
<svg version="1.1" id="Layer_1" xmlns="http://www.w3.org/2000/svg" xmlns:xlink="http://www.w3.org/1999/xlink" x="0px" y="0px"
	 viewBox="0 0 30 30" style="enable-background:new 0 0 30 30;" xml:space="preserve">
<style type="text/css">
	.st0{fill:#004FFF;}
</style>
<g>
	<path class="st0" d="M22.271349,13.9490643h-2.265131c-2.5925465,0.0008926-4.9638414,1.2927046-6.3685083,3.4632702
		c-1.0982189-0.5932693-2.335165-0.9055176-3.5863848-0.9055176c-0.0071373,0-0.0138283,0-0.0209656,0h-2.302155
		C3.5217855,16.5068169,0.1,19.9290485,0.1,24.1354675v1.095541c0,1.4862976,1.2088435,2.6960335,2.6951413,2.6960335h12.1317034
		c1.4198332,0,2.5992365-1.1196289,2.6902342-2.5220661h9.58778c1.4862976,0,2.6951408-1.2088432,2.6951408-2.6951408v-1.1330128
		C29.8999996,17.3704033,26.4777679,13.9490643,22.271349,13.9490643z M15.8854446,25.2310085
		c0,0.5290375-0.4300098,0.9590454-0.9586,0.9590454H2.7951412c-0.5290363,0-0.9594917-0.4300079-0.9594917-0.9590454v-1.095541
		c0-3.2491589,2.6433973-5.8925552,5.8925548-5.8925552h2.3012633c3.229084,0.0196266,5.8559771,2.6630249,5.8559771,5.8925552
		V25.2310085z M28.1639042,22.6732578c0,0.5290356-0.4300098,0.9590454-0.9590454,0.9590454h-9.590456
		c-0.1311436-2.0090904-1.0661011-3.9004173-2.5822859-5.2252388c1.067441-1.6834583,2.950738-2.7223501,4.9482298-2.7223501
		c0.008028,0,0.0169506,0,0.0249786,0h2.3017101c3.2295303,0.0196266,5.8568687,2.6625776,5.8568687,5.892108V22.6732578z"/>
	<path class="st0" d="M8.8607702,15.5018263c2.9971285,0,5.4357805-2.4382067,5.4357805-5.4353352
		S11.8578987,4.631156,8.8607702,4.631156s-5.4353352,2.4382062-5.4353352,5.4353352S5.8636408,15.5018263,8.8607702,15.5018263z
		 M8.8609371,6.3756709c2.0383625,0,3.6907644,1.6524577,3.6907644,3.6908202s-1.6524019,3.6907644-3.6907644,3.6907644
		c-2.0384178,0-3.6908197-1.6524019-3.6908197-3.6907644S6.8225193,6.3756709,8.8609371,6.3756709z"/>
	<path class="st0" d="M21.1392307,12.9440737c2.9966831,0,5.4357796-2.4382057,5.4357796-5.4353352
		s-2.4390965-5.435781-5.4357796-5.435781s-5.4357815,2.438652-5.4357815,5.435781S18.1425476,12.9440737,21.1392307,12.9440737z
		 M21.1392307,3.8176956c2.0383606,0,3.6908188,1.6524577,3.6908188,3.6908202s-1.6524582,3.6908202-3.6908188,3.6908202
		S17.44841,9.5468779,17.44841,7.5085158S19.1008682,3.8176956,21.1392307,3.8176956z"/>
</g>
</svg>
