<svg id="Group_4755" data-name="Group 4755" xmlns="http://www.w3.org/2000/svg" viewBox="0 0 20 20">
  <defs>
    <style>
      .cls-1 {
        fill: #403f4c;
      }
    </style>
  </defs>
  <title>icon_menu_ratings</title>
  <path class="cls-1" d="M5.427,18.441a1.4,1.4,0,0,1-1.374-1.664l.776-4.349-3.2-3.077a1.4,1.4,0,0,1,.792-2.4l4.38-.6L8.739,2.354A1.39,1.39,0,0,1,9.4,1.691a1.409,1.409,0,0,1,1.865.67L13.2,6.345l4.391.605a1.4,1.4,0,0,1,.774,2.407l-3.185,3.07.779,4.361A1.4,1.4,0,0,1,13.9,18.269L10,16.188,6.092,18.273A1.38,1.38,0,0,1,5.427,18.441ZM10,14.375l4.307,2.3-.859-4.8L16.966,8.48,12.13,7.813,10,3.417,7.87,7.813,3.034,8.48l3.52,3.387-.858,4.8Z"/>
</svg>
