<?xml version="1.0" encoding="utf-8"?>
<!-- Generator: Adobe Illustrator 23.0.1, SVG Export Plug-In . SVG Version: 6.00 Build 0)  -->
<svg version="1.1" id="Layer_1" xmlns="http://www.w3.org/2000/svg" xmlns:xlink="http://www.w3.org/1999/xlink" x="0px" y="0px"
	 viewBox="0 0 30 30" style="enable-background:new 0 0 30 30;" xml:space="preserve">
<style type="text/css">
	.st0{fill:#004FFF;}
</style>
<g>
	<path class="st0" d="M28.027832,11.8540039c-0.4882812-0.0732422-0.9873047-0.1435547-1.4873047-0.2094727
		c-0.2441406-0.8422852-0.5830078-1.6586914-1.0078125-2.4301758c0.3066406-0.4003906,0.6113281-0.8037109,0.9052734-1.2006836
		c0.5507812-0.746582,0.4707031-1.8061523-0.1865234-2.4648438l-1.7998047-1.7998047
		c-0.6582031-0.6582031-1.71875-0.7382812-2.4658203-0.1860352c-0.3955078,0.293457-0.7988281,0.5966797-1.2001953,0.9042969
		c-0.7705078-0.4243164-1.5869141-0.7626953-2.4296875-1.0073242c-0.0664062-0.5009766-0.1367188-1.0009766-0.2089844-1.4882812
		c-0.1376953-0.918457-0.9433594-1.6113281-1.875-1.6113281h-2.5454102c-0.9311523,0-1.7368164,0.6928711-1.8740234,1.6113281
		c-0.0732422,0.4873047-0.1430664,0.9873047-0.2094727,1.487793c-0.8442383,0.2446289-1.6606445,0.5830078-2.4296875,1.0073242
		C8.8120117,4.1591797,8.4086914,3.8554688,8.0126953,3.5620117C7.2646484,3.0087891,6.2050781,3.0888672,5.5483398,3.7480469
		l-1.800293,1.7998047C3.0893555,6.2060547,3.0092773,7.265625,3.5620117,8.0126953
		C3.8564453,8.4106445,4.159668,8.8139648,4.4663086,9.2133789c-0.4248047,0.7714844-0.7631836,1.5878906-1.0073242,2.4301758
		c-0.5,0.065918-0.9995117,0.1362305-1.487793,0.2094727c-0.918457,0.137207-1.6113281,0.9428711-1.6113281,1.8740234v2.5454102
		c0,0.9316406,0.6928711,1.7373047,1.6113281,1.8740234c0.4882812,0.0722656,0.987793,0.1435547,1.487793,0.2099609
		c0.2446289,0.84375,0.5830078,1.6601562,1.0073242,2.4296875c-0.3076172,0.4003906-0.6113281,0.8037109-0.9042969,1.2001953
		c-0.5522461,0.7470703-0.4726562,1.8066406,0.1860352,2.4658203l1.800293,1.7998047
		C6.206543,26.9111328,7.265625,26.9902344,8.0126953,26.4375c0.3959961-0.2929688,0.7993164-0.5966797,1.2006836-0.9042969
		c0.7685547,0.4238281,1.5844727,0.7617188,2.4301758,1.0078125c0.065918,0.5009766,0.1362305,1.0009766,0.2094727,1.4873047
		c0.1376953,0.9189453,0.9433594,1.6113281,1.8740234,1.6113281h2.5458984c0.9316406,0,1.7373047-0.6933594,1.8740234-1.6113281
		c0.0722656-0.4882812,0.1435547-0.9882812,0.2099609-1.4882812c0.8447266-0.2451172,1.6601562-0.5830078,2.4296875-1.0068359
		c0.4013672,0.3076172,0.8037109,0.6113281,1.2001953,0.9042969c0.7451172,0.5517578,1.8056641,0.4726562,2.4648438-0.1855469
		l1.8007812-1.8007812c0.6582031-0.6591797,0.7382812-1.7177734,0.1855469-2.4638672
		c-0.2939453-0.3974609-0.5966797-0.7998047-0.9042969-1.2011719c0.4248047-0.7714844,0.7626953-1.5878906,1.0068359-2.4296875
		c0.5-0.0664062,0.9990234-0.1376953,1.4873047-0.2099609c0.9189453-0.1367188,1.6123047-0.9423828,1.6123047-1.8740234v-2.5454102
		C29.6401367,12.7954102,28.9467773,11.9902344,28.027832,11.8540039z M24.527832,17.6347656
		c-0.2148438,0.7802734-0.5273438,1.5341797-0.9277344,2.2402344c-0.3769531,0.6630859-0.3193359,1.4833984,0.1474609,2.0908203
		c0.2880859,0.3740234,0.5732422,0.7509766,0.8505859,1.1240234l-1.5097656,1.5107422
		c-0.3730469-0.2763672-0.7509766-0.5625-1.125-0.8505859c-0.6064453-0.4667969-1.4277344-0.5273438-2.0898438-0.1484375
		C19.1713867,24,18.418457,24.3125,17.6333008,24.5302734c-0.7353516,0.2021484-1.2734375,0.8232422-1.3730469,1.5820312
		c-0.0605469,0.46875-0.1259766,0.9375-0.1928711,1.3964844h-2.1367188
		c-0.0673828-0.4589844-0.1323242-0.9277344-0.1938477-1.3955078c-0.0986328-0.7587891-0.637207-1.3798828-1.3720703-1.5830078
		c-0.7802734-0.2148438-1.5336914-0.5273438-2.2402344-0.9287109c-0.6474609-0.3662109-1.4985352-0.3046875-2.0898438,0.1494141
		c-0.3745117,0.2871094-0.7514648,0.5732422-1.1245117,0.8505859l-1.5102539-1.5107422
		c0.2773438-0.3720703,0.5625-0.75,0.8505859-1.1240234c0.4667969-0.6074219,0.5249023-1.4277344,0.1479492-2.0898438
		c-0.4008789-0.7070312-0.7133789-1.4619141-0.9282227-2.2412109c-0.2021484-0.734375-0.8232422-1.2724609-1.5825195-1.3720703
		c-0.4663086-0.0605469-0.934082-0.1259766-1.3964844-0.1933594v-2.1367188
		c0.4599609-0.0673828,0.9287109-0.1328125,1.3959961-0.1938477c0.7587891-0.0981445,1.3798828-0.6367188,1.5825195-1.3710938
		c0.2148438-0.7807617,0.5273438-1.534668,0.9282227-2.2412109C6.7744141,9.4643555,6.7163086,8.644043,6.25,8.0380859
		C5.9624023,7.6640625,5.6767578,7.2866211,5.3994141,6.9135742L6.909668,5.402832
		c0.3720703,0.2768555,0.7495117,0.5620117,1.1245117,0.8510742c0.6064453,0.4663086,1.4262695,0.5244141,2.090332,0.1484375
		c0.7026367-0.3999023,1.456543-0.7124023,2.2402344-0.9287109c0.734375-0.2026367,1.2729492-0.8232422,1.371582-1.5820312
		c0.0615234-0.46875,0.1264648-0.9375,0.1938477-1.3964844h2.1362305c0.0678711,0.4589844,0.1323242,0.9282227,0.1938477,1.3959961
		c0.0996094,0.7592773,0.6376953,1.3803711,1.3720703,1.5825195c0.7802734,0.215332,1.5341797,0.527832,2.2402344,0.9291992
		c0.6640625,0.375,1.4833984,0.3168945,2.0908203-0.1489258c0.375-0.2885742,0.7519531-0.574707,1.1230469-0.8505859
		l1.5117188,1.5102539c-0.2773438,0.3730469-0.5634766,0.7504883-0.8505859,1.1245117
		c-0.4667969,0.6064453-0.5253906,1.4267578-0.1484375,2.0898438c0.4013672,0.7075195,0.7138672,1.4614258,0.9287109,2.2407227
		c0.2021484,0.734375,0.8232422,1.2729492,1.5820312,1.3710938c0.46875,0.0615234,0.9365234,0.1264648,1.3964844,0.1938477
		v2.1357422c-0.4599609,0.0673828-0.9287109,0.1318359-1.3964844,0.1933594
		C25.3510742,16.3603516,24.7299805,16.8994141,24.527832,17.6347656z M27.9692383,12.250061L27.9692383,12.250061V12.25V12.250061z
		"/>
	<path class="st0" d="M15,7.7382812c-4.0048828,0-7.2626953,3.2578125-7.2626953,7.262207S10.9951172,22.2636719,15,22.2636719
		c4.0043945,0,7.262207-3.2587891,7.262207-7.2631836S19.0043945,7.7382812,15,7.7382812z M20.2241211,15.0004883
		c0,2.8803711-2.34375,5.2241211-5.2241211,5.2241211c-2.8808594,0-5.2250977-2.34375-5.2250977-5.2241211
		c0-2.8808594,2.3442383-5.2246094,5.2250977-5.2246094C17.8803711,9.7758789,20.2241211,12.1196289,20.2241211,15.0004883z"/>
</g>
</svg>
