<?xml version="1.0" encoding="utf-8"?>
<!-- Generator: Adobe Illustrator 23.0.1, SVG Export Plug-In . SVG Version: 6.00 Build 0)  -->
<svg version="1.1" id="Layer_1" xmlns="http://www.w3.org/2000/svg" xmlns:xlink="http://www.w3.org/1999/xlink" x="0px" y="0px"
	 viewBox="0 0 30 30" style="enable-background:new 0 0 30 30;" xml:space="preserve">
<style type="text/css">
	.st0{fill:#004FFF;}
</style>
<g>
	<g>
		<path id="Path_9711" class="st0" d="M14.6826572,7.58529h-0.0082855H14.6826572z"/>
		<path id="Path_9719" class="st0" d="M13.094285,18.0708618c-1.0554581-0.5821457-2.2414989-0.8866405-3.4468565-0.8849144
			H7.5345712C3.6563542,17.2009296,0.5158976,20.3406467,0.5,24.2188606v1.0034008
			c0.0018258,1.3958607,1.1329393,2.5269737,2.5288,2.5287991h11.1028566
			c1.3774748-0.0100517,2.4964848-1.1151009,2.5238285-2.492342v-1.3828869h0.0016575
			c-0.0920639-1.940773-0.9838467-3.7567387-2.4633427-5.0161705C13.8454399,18.5723152,13.4781017,18.3087845,13.094285,18.0708618
			z M14.9535999,24.2188606v1.0034008c0,0.4534874-0.3676252,0.8211136-0.8211136,0.8211136H3.0288
			c-0.4534886,0-0.8211138-0.3676262-0.8211143-0.8211136v-1.0034008c0.0059345-2.9432678,2.3919003-5.3270092,5.3351717-5.3302002
			h2.1178284c2.9245205,0.030365,5.2815971,2.4055328,5.2896004,5.3302002H14.9535999z"/>
		<path class="st0" d="M8.5835276,5.3705187C5.4601002,5.371429,2.9285679,7.9037199,2.9285679,11.0271978
			c-0.0005057,3.1236286,2.5313301,5.6561728,5.6549597,5.6566286c0.001112,0,0.0022249,0,0.0033379,0
			c3.1240845-0.0009117,5.65592-2.5342131,5.6550093-5.6582975C14.2409649,7.901444,11.707612,5.3696079,8.5835276,5.3705187z
			 M8.5851965,15.0504007c-2.2219815,0-4.0232544-1.8012218-4.0232544-4.0232029S6.363215,7.003943,8.5851965,7.003943
			s4.0232544,1.8012729,4.0232544,4.0232549S10.8071775,15.0504007,8.5851965,15.0504007z"/>
	</g>
	<g>
		<g id="Group_2128_1_" transform="translate(16.749 5.366)">
			<path id="Path_8099_1_" class="st0" d="M9.6423769,3.3785768h-9.7380724
				C-0.432769,3.3472691-0.6806425,3.0486372-0.6493344,2.7115629c0.0272813-0.2937257,0.2599137-0.5263581,0.5536392-0.5536397
				h9.7380724c0.3370743-0.0313075,0.6357069,0.2165656,0.6670141,0.5536397s-0.2165651,0.6357062-0.5536404,0.6670139
				C9.7180405,3.3820791,9.6800871,3.3820791,9.6423769,3.3785768z"/>
		</g>
		<g id="Group_2129_1_" transform="translate(16.751 9.061)">
			<path id="Path_8100_1_" class="st0" d="M5.2731266,2.9190958H0.1891252
				C-0.1479485,2.8877881-0.395822,2.5891562-0.3645139,2.2520821c0.0272813-0.293726,0.2599137-0.5263584,0.5536392-0.5536397
				h5.0840015c0.3370748-0.0313077,0.6357069,0.2165654,0.6670141,0.5536397
				c0.0313077,0.337074-0.2165651,0.6357059-0.5536399,0.6670136C5.3487902,2.9225981,5.3108373,2.9225981,5.2731266,2.9190958z"/>
		</g>
		<g id="Group_2130_1_" transform="translate(16.749 12.757)">
			<path id="Path_8101_1_" class="st0" d="M7.4861374,2.459491H0.1893721
				c-0.3370737-0.0313072-0.5849473-0.3299396-0.5536392-0.6670142c0.0272813-0.2937255,0.2599137-0.5263579,0.5536392-0.5536392
				h7.2967653C7.8232117,1.2701448,8.071085,1.5687772,8.0397778,1.9058518
				C8.012495,2.1995771,7.7798629,2.4322097,7.4861374,2.459491z"/>
		</g>
	</g>
	<path class="st0" d="M28.8582764,2.2490003H17.2821045v-0.000061H7.5293579l-0.000061,0.000061H7.2630615
		C6.8589478,2.2494276,6.5314941,2.5769422,6.5310059,2.9809949v0.1591797V3.347389v1.3792722
		c0.4678345-0.1519775,0.9580078-0.2524414,1.4649658-0.2966919V3.7139051h3.9647217h5.3214111h10.8432617v15.3108521H16.6144409
		c0.3501587,0.4589233,0.6553345,0.9486694,0.9076538,1.4640503h11.3361816
		c0.4041138-0.0004883,0.7315674-0.3279419,0.7320557-0.7319946V2.9809949
		C29.5893555,2.5771253,29.262207,2.2499158,28.8582764,2.2490003z"/>
</g>
</svg>
