<svg id="Layer_1" data-name="Layer 1" xmlns="http://www.w3.org/2000/svg" viewBox="0 0 36.332 19.998">
  <defs>
    <style>
      .cls-1 {
        fill: #004fff;
      }
    </style>
  </defs>
  <title>icon_analytics2</title>
  <path id="Path_7942" data-name="Path 7942" class="cls-1" d="M33.4,1.109h0a3.928,3.928,0,0,0-3.966,3.873h0a3.852,3.852,0,0,0,.759,2.355L25.468,13.39a3.967,3.967,0,0,0-1.231-.2h0a3.94,3.94,0,0,0-1.388.259L17.6,6.637c-.021-.024-.043-.047-.065-.069a3.865,3.865,0,0,0-.759-4.41A3.948,3.948,0,0,0,14,1a4.009,4.009,0,0,0-2.776,1.124,3.868,3.868,0,0,0-.393,5.09L6.052,13.286a4,4,0,0,0-1.231-.2H4.8a3.939,3.939,0,0,0-2.777,1.123,3.877,3.877,0,0,0-.1,5.483c.022.024.045.047.069.07a3.945,3.945,0,0,0,2.776,1.157h.023A3.945,3.945,0,0,0,7.564,19.8a3.873,3.873,0,0,0,.087-5.477L7.629,14.3l4.6-5.886a3.958,3.958,0,0,0,1.717.4h.023a3.935,3.935,0,0,0,2.346-.787L21.266,14.5a3.861,3.861,0,0,0-1.013,2.582h0A3.929,3.929,0,0,0,24.179,21h0a3.929,3.929,0,0,0,3.947-3.882,3.876,3.876,0,0,0-1.115-2.735l4.6-5.863a3.95,3.95,0,0,0,1.712.4h0a3.906,3.906,0,0,0,0-7.811ZM6.274,18.44a2.152,2.152,0,0,1-1.49.6A2.1,2.1,0,0,1,3.3,18.406a2.012,2.012,0,0,1-.6-1.453h0a2.021,2.021,0,0,1,.615-1.444,2.1,2.1,0,0,1,1.476-.6h0a2.1,2.1,0,0,1,1.481.615,2.027,2.027,0,0,1,.033,2.866l-.033.034Zm7.69-11.481h0a2.1,2.1,0,0,1-1.481-.615,2.012,2.012,0,0,1-.6-1.453h0A2.021,2.021,0,0,1,12.5,3.447a2.1,2.1,0,0,1,1.476-.6h0a2.1,2.1,0,0,1,1.481.615,2.027,2.027,0,0,1,.033,2.866l-.033.034A2.1,2.1,0,0,1,13.964,6.959Zm10.25,12.189h0a2.055,2.055,0,0,1,0-4.109h0a2.055,2.055,0,0,1,0,4.109ZM33.379,7.07h0a2.055,2.055,0,1,1,2.106-2.041A2.079,2.079,0,0,1,33.37,7.07h.009Z" transform="translate(-0.834 -1.001)"/>
</svg>
