<?xml version="1.0" encoding="utf-8"?>
<!-- Generator: Adobe Illustrator 23.0.1, SVG Export Plug-In . SVG Version: 6.00 Build 0)  -->
<svg version="1.1" id="Layer_1" xmlns="http://www.w3.org/2000/svg" xmlns:xlink="http://www.w3.org/1999/xlink" x="0px" y="0px"
	 viewBox="0 0 30 30" style="enable-background:new 0 0 30 30;" xml:space="preserve">
<style type="text/css">
	.st0{fill:#004FFF;}
</style>
<g>
	<path class="st0" d="M13.3453369,15.3285522c0.1173096,0.217041,0.3440552,0.3525391,0.5907593,0.3529663h2.477417
		c0.3704834-0.022583,0.6524658-0.3411865,0.6298828-0.7116089c-0.0206299-0.3389282-0.2908936-0.6091919-0.6298828-0.6298828
		h-2.2172241C13.9447021,14.6958618,13.65979,15.0268555,13.3453369,15.3285522z"/>
	<path class="st0" d="M17.0813599,11.8932495c0-0.0002441,0-0.0005493,0-0.0007935
		c0-0.3702393-0.3001099-0.6703491-0.6702881-0.6703491h-1.0092163c-0.0560303,0.4556885-0.1578979,0.9046021-0.3040771,1.3398438
		h1.3132935C16.7808228,12.5623779,17.0809326,12.2630005,17.0813599,11.8932495z"/>
	<path class="st0" d="M15.6785889,6.0758667l0.0025024-0.0016479c0.0834961-0.5559692-0.2994995-1.0744019-0.8555298-1.157959
		c-0.5559692-0.0834961-1.0744019,0.2995605-1.1578979,0.8555298c0.3232422,0.3560181,0.6084595,0.744751,0.8509521,1.1599731
		C15.0749512,7.0144653,15.5934448,6.6318359,15.6785889,6.0758667z"/>
	<path class="st0" d="M23.4431152,15.6815186h2.4749756c0.3704224-0.022583,0.6524048-0.3411865,0.6298828-0.7116089
		c-0.0206299-0.3389282-0.2909546-0.6091919-0.6298828-0.6298828h-2.4749756c-0.0217896-0.0015869-0.0436401-0.0015869-0.0654297,0
		c-0.369751,0.0315552-0.6439819,0.3569336-0.6123657,0.7266846C22.7952271,15.4176025,23.0910034,15.6858521,23.4431152,15.6815186
		z"/>
	<path class="st0" d="M21.8340454,11.8883057v-0.0083008c0.0009155-0.3624268-0.2921143-0.6569824-0.654541-0.6578979
		c-0.0019531,0-0.0039062,0-0.0057983,0h-2.4940186c-0.3699951,0.0130615-0.6593628,0.3234863-0.6463623,0.6934814
		c0.0123901,0.3517456,0.2946777,0.6339722,0.6463623,0.6463623h2.477417h0.0066528
		c0.3706665-0.0004883,0.6707764-0.3013306,0.6702881-0.6719971C21.8340454,11.8894043,21.8340454,11.888855,21.8340454,11.8883057z
		"/>
	<path class="st0" d="M23.4431152,12.5619507h2.4749756c0.3699951,0.0130005,0.6804199-0.2763672,0.6934814-0.6463623
		c0.0130005-0.3699951-0.2763672-0.6804199-0.6463623-0.6934814c-0.015686-0.0005493-0.0314331-0.0005493-0.0471191,0h-2.4749756
		c-0.3699341,0.0130615-0.6593018,0.3234863-0.6463013,0.6934814C22.8092041,12.267334,23.0914307,12.5495605,23.4431152,12.5619507
		z"/>
	<path class="st0" d="M26.1973267,5.9267578c0-0.0005493,0-0.0010986,0-0.001709
		c-0.0009155-0.5623779-0.4575806-1.0175171-1.0199585-1.0166016c-0.562439,0.0009155-1.0175781,0.4575195-1.0166626,1.0199585
		c0.0009155,0.5623779,0.4575806,1.0175781,1.0199585,1.0166626C25.7426147,6.9445801,26.1977539,6.4886475,26.1973267,5.9267578z"
		/>
	<path class="st0" d="M21.1712036,14.3400269c-0.0005493,0-0.0010986,0-0.0016479,0h-2.4940186
		c-0.3704224,0.022583-0.6524048,0.3411865-0.6298828,0.7116089c0.0206299,0.3389282,0.2909546,0.6092529,0.6298828,0.6298828
		h2.4766235l0.0115967,0.0016479c0.3693237-0.0045776,0.6655884-0.3067627,0.6628418-0.6761475v-0.0098877
		C21.8270874,14.6347046,21.5336304,14.3405151,21.1712036,14.3400269z"/>
	<path class="st0" d="M26.9794922,2.8933105H12.8730469c-0.7921753-0.0018921-1.5383911,0.371521-2.0117798,1.0067139
		c0.4423828,0.1554565,0.8676758,0.3556519,1.2694092,0.5974121c0.2106934-0.1711426,0.4742432-0.263916,0.7456665-0.2626343
		h14.1047974c0.6514282,0,1.1798096,0.5275879,1.1807251,1.1790161v2.242981H14.8922729
		c0.1901855,0.4397583,0.3338013,0.8982544,0.4284058,1.367981h12.8428345v8.2790527
		c-0.0018311,0.6504517-0.5286255,1.1772461-1.1790771,1.1790771H16.3439331
		c0.3497925,0.416687,0.6588745,0.8659058,0.9230347,1.3414307h9.7141724
		C28.369873,19.8216553,29.4954224,18.6975098,29.5,17.3088379V5.4138184
		C29.4986572,4.0223999,28.3709717,2.8947144,26.9794922,2.8933105z"/>
	<path class="st0" d="M14.1937866,18.215271c-0.3483276-0.2873535-0.7156982-0.5509033-1.0994873-0.7888184
		c-1.055481-0.5821533-2.2415161-0.8865967-3.4468994-0.8848877h-2.112854
		C3.6563721,16.5565186,0.5158691,19.6962891,0.5,23.5744629v1.003418c0.0018311,1.395874,1.1329346,2.5269775,2.5288086,2.5288086
		h11.1028442c1.3775024-0.0100708,2.49646-1.1151123,2.5238037-2.4923706v-1.3828735h0.001709
		C16.5650635,21.2906494,15.6732788,19.4747314,14.1937866,18.215271z M14.9536133,23.5744629v1.003418
		c0,0.4534912-0.3676147,0.821106-0.821106,0.821106H3.0288086c-0.4534912,0-0.821106-0.3676147-0.821106-0.821106v-1.003418
		c0.0059204-2.9432373,2.3919067-5.3270264,5.335144-5.3302002h2.1178589
		c2.9244995,0.0303955,5.2815552,2.4055176,5.2895508,5.3302002H14.9536133z"/>
	<path class="st0" d="M8.5835571,16.0394287c0.0010986,0,0.0021973,0,0.0032959,0
		c3.1240845-0.0009155,5.6559448-2.5341797,5.6550293-5.6582642s-2.5342407-5.6559448-5.6583252-5.6550293
		C5.460083,4.7270508,2.9285889,7.2593384,2.9285889,10.3828125C2.9280396,13.5064697,5.4598999,16.0390015,8.5835571,16.0394287z
		 M8.5852051,6.3595581c2.2219849,0,4.0232544,1.8012695,4.0232544,4.0232544s-1.8012695,4.0231934-4.0232544,4.0231934
		s-4.0232544-1.8012085-4.0232544-4.0231934S6.3632202,6.3595581,8.5852051,6.3595581z"/>
</g>
</svg>
