<svg id="Layer_1" data-name="Layer 1" xmlns="http://www.w3.org/2000/svg" viewBox="0 0 20 20">
  <defs>
    <style>
      .cls-1 {
        fill: #fff;
      }
    </style>
  </defs>
  <title>icon_bt_schedule</title>
  <g id="noun_Calendar_545370" data-name="noun Calendar 545370">
    <path id="Path_637" data-name="Path 637" class="cls-1" d="M16.716,2H3.383A2.388,2.388,0,0,0,1,4.383V15.617A2.388,2.388,0,0,0,3.383,18H16.716A2.388,2.388,0,0,0,19.1,15.617V4.383A2.388,2.388,0,0,0,16.716,2ZM3.383,3.268H16.716a1.119,1.119,0,0,1,1.115,1.115V6.5H2.268V4.38A1.119,1.119,0,0,1,3.383,3.268ZM16.716,16.732H3.383a1.119,1.119,0,0,1-1.115-1.115V7.792H17.831v7.825A1.119,1.119,0,0,1,16.716,16.732Z"/>
    <path id="Path_638" data-name="Path 638" class="cls-1" d="M6.727,9.869H4.388a.634.634,0,0,0,0,1.268H6.727a.634.634,0,0,0,0-1.268Z"/>
    <path id="Path_639" data-name="Path 639" class="cls-1" d="M6.727,12.82H4.388a.634.634,0,0,0,0,1.268H6.727a.634.634,0,0,0,0-1.268Z"/>
    <path id="Path_640" data-name="Path 640" class="cls-1" d="M11.23,9.869H8.869a.634.634,0,0,0,0,1.268h2.339a.634.634,0,0,0,.634-.634.617.617,0,0,0-.6-.634Z"/>
    <path id="Path_641" data-name="Path 641" class="cls-1" d="M11.23,12.82H8.869a.634.634,0,0,0,0,1.268h2.339a.634.634,0,0,0,.634-.634.617.617,0,0,0-.6-.634Z"/>
    <path id="Path_642" data-name="Path 642" class="cls-1" d="M15.711,9.869H13.372a.634.634,0,0,0,0,1.268h2.339a.634.634,0,0,0,0-1.268Z"/>
    <path id="Path_643" data-name="Path 643" class="cls-1" d="M15.711,12.82H13.372a.634.634,0,0,0,0,1.268h2.339a.634.634,0,1,0,0-1.268Z"/>
    <circle id="Ellipse_75" data-name="Ellipse 75" class="cls-1" cx="5.088" cy="4.864" r="0.962"/>
    <circle id="Ellipse_76" data-name="Ellipse 76" class="cls-1" cx="15.011" cy="4.864" r="0.962"/>
  </g>
</svg>
