<?xml version="1.0" encoding="utf-8"?>
<!-- Generator: Adobe Illustrator 23.0.1, SVG Export Plug-In . SVG Version: 6.00 Build 0)  -->
<svg version="1.1" id="Layer_1" xmlns="http://www.w3.org/2000/svg" xmlns:xlink="http://www.w3.org/1999/xlink" x="0px" y="0px"
	 viewBox="0 0 30 30" style="enable-background:new 0 0 30 30;" xml:space="preserve">
<style type="text/css">
	.st0{fill:#004FFF;}
</style>
<g>
	<polygon class="st0" points="15.4074097,0.697876 15.4110107,0.6980591 15.414856,0.697876 	"/>
	<path class="st0" d="M21.0183716,1.9083252c-1.7616577-0.7980957-3.6734009-1.2105713-5.6073608-1.2102661
		C7.9118652,0.6973267,1.8309326,6.7748413,1.828125,14.2745361c-0.0007324,1.9404297,0.4143677,3.8585815,1.2173462,5.6251221
		L1.0501709,27.038147c-0.1973877,0.6940308,0.2052002,1.416687,0.899292,1.6141357
		c0.1173096,0.0333252,0.2386475,0.0501099,0.3605957,0.0498047c0.1193237,0.0003052,0.2380371-0.0159912,0.3527832-0.0485229
		l7.1450195-1.9990234c6.8334961,3.0957031,14.8826904,0.0656128,17.9783936-6.7678833
		C30.881897,13.0532227,27.8518677,5.0040283,21.0183716,1.9083252z M23.1702271,22.0479736h0.0009155
		c-3.3400879,3.3518677-8.4549561,4.1799316-12.6820068,2.0531616c-0.0223999-0.0111694-0.0466309-0.0167847-0.0690308-0.026123
		c-0.0476074-0.0217285-0.0965576-0.0404053-0.1465454-0.0559692c-0.036377-0.0112305-0.0737305-0.0177612-0.1101074-0.0252075
		c-0.0861816-0.0205688-0.1746826-0.0293579-0.2631836-0.026123c-0.0426025-0.0021973-0.0852661-0.0021973-0.1278687,0
		c-0.0470581,0.0054321-0.093811,0.0135498-0.1400146,0.024231c-0.0289307,0.0065308-0.0568848,0.0065308-0.0848999,0.0149536
		l-5.3447876,1.4932251l1.4932251-5.354126c0.0074463-0.0289307,0.0084229-0.0578613,0.0149536-0.086792
		c0.010437-0.0455322,0.0182495-0.0916748,0.0233154-0.1381226c0-0.0419922,0-0.0830688,0-0.1240845
		c0.0021973-0.0435181,0.0021973-0.0871582,0-0.1306763c0-0.0438843-0.0130615-0.0858765-0.0205078-0.1287842
		c-0.0072632-0.0405884-0.0166016-0.0807495-0.0280151-0.1204224c-0.0139771-0.0466309-0.0326538-0.0933228-0.050415-0.1334229
		c-0.0111694-0.026123-0.0177002-0.0532227-0.0307617-0.0793457C2.8907471,13.7866821,5.0827637,7.1948853,10.5004272,4.4812012
		c1.5249634-0.763855,3.2070312-1.1616211,4.9125977-1.1618042c6.0598145,0.0020142,10.9706421,4.9161377,10.9686279,10.9759521
		C26.3806763,17.2030029,25.225647,19.991394,23.1702271,22.0479736z"/>
	<path class="st0" d="M17.6594238,7.857666c-0.6621094-0.366394-1.3948975-0.5495605-2.1987305-0.5495605
		c-0.6502686,0-1.2618408,0.1212158-1.835083,0.3627319c-0.5737305,0.2424316-1.0726929,0.5823364-1.498291,1.0198364
		c-0.2246704,0.2250977-0.3372192,0.4730225-0.3372192,0.7445679c0,0.3190308,0.1535645,0.5969849,0.4611816,0.8339233
		c0.1772461,0.1412964,0.3781738,0.2123413,0.6028442,0.2123413c0.3071289,0,0.6029053-0.1293945,0.8867798-0.3900757
		c0.4962769-0.437439,1.069519-0.656189,1.7197876-0.656189c0.6384277,0,1.1702271,0.1950684,1.5958252,0.585144
		s0.6384277,0.8812866,0.6384277,1.4718628c0,0.7683105-0.2365112,1.3361206-0.7090454,1.7024536
		c-0.4730225,0.366394-1.0996094,0.5495605-1.8797607,0.5495605c-0.3075562,0-0.5614014,0.1039429-0.7623291,0.310791
		c-0.201416,0.2069092-0.3016968,0.4639282-0.3016968,0.7710571v1.3479004c0,0.3071289,0.1002808,0.5641479,0.3016968,0.7714844
		c0.2009277,0.2069092,0.4547729,0.3098755,0.7623291,0.3098755c0.3071899,0,0.5614624-0.1029663,0.7623901-0.3098755
		c0.2009888-0.2073364,0.3016968-0.4643555,0.3016968-0.7714844v-0.656189c0-0.0355225,0.0291138-0.0646973,0.0883789-0.0892944
		c1.0758667-0.164978,1.9385376-0.5787354,2.5888062-1.241333c0.6502686-0.6616211,0.9755859-1.5602417,0.9755859-2.6949463
		c0-0.7683105-0.1950073-1.4746094-0.5855103-2.1189575C18.8474121,8.7289429,18.3215332,8.2240601,17.6594238,7.857666z"/>
	<path class="st0" d="M15.2478638,18.0009155H15.017334c-0.3427124,0-0.6056519,0.0911255-0.7888184,0.274292
		c-0.1836548,0.1832275-0.2747803,0.4465942-0.2747803,0.7892456v0.3016968c0,0.3426514,0.0911255,0.6051636,0.2747803,0.7883301
		c0.1831665,0.1841431,0.446106,0.2752686,0.7888184,0.2752686h0.2305298c0.3427124,0,0.6056519-0.0911255,0.7893066-0.2752686
		c0.1831665-0.1831665,0.2747803-0.4456787,0.2747803-0.7883301v-0.3016968c0-0.3426514-0.0916138-0.6060181-0.2747803-0.7892456
		C15.8535156,18.092041,15.5905762,18.0009155,15.2478638,18.0009155z"/>
</g>
</svg>
