<svg xmlns="http://www.w3.org/2000/svg" viewBox="0 0 13.978 15"><defs><style>.a{fill:#403f4b;}</style></defs><g transform="translate(-1.01)"><path class="a" d="M8,0a1.078,1.078,0,0,0-.95,1V7a.951.951,0,1,0,1.9,0V1A.967.967,0,0,0,8,0ZM4.656,2.5a.952.952,0,0,0-.25.094,6.3,6.3,0,0,0-3.125,7.469A6.907,6.907,0,0,0,7.969,15a6.954,6.954,0,0,0,6.719-4.781,6.424,6.424,0,0,0-3.125-7.594,1,1,0,0,0-1.313.344,1,1,0,0,0,.344,1.313,4.382,4.382,0,0,1,2.281,5.375,4.972,4.972,0,0,1-4.906,3.437A4.95,4.95,0,0,1,3.094,9.5,4.226,4.226,0,0,1,5.281,4.281a.98.98,0,0,0,.456-1.106A.98.98,0,0,0,4.75,2.5q-.047,0-.094,0Z"/></g></svg>