<svg xmlns="http://www.w3.org/2000/svg" viewBox="0 0 16 16.905"></svg>
  <defs>
    <style>
      .a {
        fill: #403f4c;
      }
    </style>
  </defs>
  <g transform="translate(-23.5 -22)">
    <g transform="translate(23.5 22)">
      <g transform="translate(0 0)">
        <path class="a" d="M28.632,36.038h1.509a1.358,1.358,0,1,0,2.717,0h1.509a2.868,2.868,0,1,1-5.736,0ZM39.5,33.924v.3a1.357,1.357,0,0,1-1.359,1.358H24.859A1.358,1.358,0,0,1,23.5,34.227v-.3a2.266,2.266,0,0,1,1.811-2.218V28.188a6.189,6.189,0,0,1,12.377,0v3.518A2.263,2.263,0,0,1,39.5,33.924Zm-1.509,0a.754.754,0,0,0-.758-.754,1.056,1.056,0,0,1-1.054-1.054V28.188a4.679,4.679,0,0,0-9.358,0v3.927a1.056,1.056,0,0,1-1.054,1.054.756.756,0,0,0-.758.754v.151H37.991Z"
          transform="translate(-23.5 -22)" />
      </g>
    </g>
  </g>
</svg>