<svg xmlns="http://www.w3.org/2000/svg" viewBox="0 0 16 16"><defs><style>.a{fill:#403f4c;}</style></defs><path class="a" d="M16.4,9.345v-.7h-2.22a9.736,9.736,0,0,0-.737-3.461A7.724,7.724,0,0,0,14.64,4.15l-.511-.481a7.222,7.222,0,0,1-.988.867A4.916,4.916,0,0,0,8.985,1.582,4.916,4.916,0,0,0,4.831,4.536a7.156,7.156,0,0,1-.988-.867l-.511.481A7.721,7.721,0,0,0,4.524,5.181a9.744,9.744,0,0,0-.737,3.461H1.573v.7H3.787a9.74,9.74,0,0,0,.728,3.44,7.743,7.743,0,0,0-1.2,1.04l.512.48a7.189,7.189,0,0,1,.991-.873,4.923,4.923,0,0,0,4.165,2.974,4.925,4.925,0,0,0,4.166-2.974,7.186,7.186,0,0,1,.991.873l.513-.48a7.761,7.761,0,0,0-1.2-1.04,9.738,9.738,0,0,0,.728-3.44Zm-2.928-.7H11.393a23.08,23.08,0,0,0-.155-2.389,7.8,7.8,0,0,0,1.613-.7A9.241,9.241,0,0,1,13.476,8.643ZM8.985,15.736c-.49,0-1.135-1.306-1.476-3.512a7.169,7.169,0,0,1,2.951,0C10.121,14.431,9.476,15.736,8.985,15.736Zm0-4.367a7.725,7.725,0,0,0-1.568.162c-.076-.664-.125-1.395-.136-2.185h3.407c-.012.79-.059,1.521-.136,2.185A7.717,7.717,0,0,0,8.985,11.369Zm-1.7-2.726A21.965,21.965,0,0,1,7.42,6.431a7.7,7.7,0,0,0,1.565.161,7.7,7.7,0,0,0,1.565-.161,21.967,21.967,0,0,1,.139,2.212Zm1.7-6.391c.489,0,1.131,1.295,1.472,3.485a7.153,7.153,0,0,1-1.472.153,7.156,7.156,0,0,1-1.472-.153C7.855,3.547,8.5,2.252,8.985,2.252Zm3.577,2.664a6.91,6.91,0,0,1-1.42.642,9.228,9.228,0,0,0-.923-3.041A4.969,4.969,0,0,1,12.562,4.916Zm-4.811-2.4a9.226,9.226,0,0,0-.922,3.041,6.913,6.913,0,0,1-1.42-.642A4.97,4.97,0,0,1,7.751,2.516ZM5.119,5.557a7.811,7.811,0,0,0,1.613.7,23.178,23.178,0,0,0-.155,2.389H4.495A9.237,9.237,0,0,1,5.119,5.557ZM4.495,9.345H6.577a23.131,23.131,0,0,0,.152,2.363,7.807,7.807,0,0,0-1.619.7A9.261,9.261,0,0,1,4.495,9.345Zm.9,3.705A6.937,6.937,0,0,1,6.824,12.4a9.281,9.281,0,0,0,.926,3.068A4.981,4.981,0,0,1,5.4,13.05Zm4.822,2.421a9.269,9.269,0,0,0,.927-3.068,6.889,6.889,0,0,1,1.427.647A4.98,4.98,0,0,1,10.22,15.472Zm2.641-3.063a7.812,7.812,0,0,0-1.619-.7,23.028,23.028,0,0,0,.151-2.363h2.083A9.257,9.257,0,0,1,12.861,12.409Z" transform="translate(-0.988 -0.994)"/><path class="a" d="M8,16a8,8,0,1,1,8-8A8.009,8.009,0,0,1,8,16ZM8,.8A7.2,7.2,0,1,0,15.2,8,7.211,7.211,0,0,0,8,.8Z"/></svg>