<svg xmlns="http://www.w3.org/2000/svg" viewBox="0 0 18.099 16"><defs><style>.a{fill:#403f4c;}</style></defs><g transform="translate(-8.6 -13.4)"><path class="a" d="M24.316,13.4H10.983A2.388,2.388,0,0,0,8.6,15.783V27.017A2.388,2.388,0,0,0,10.983,29.4H24.316A2.388,2.388,0,0,0,26.7,27.017V15.783A2.388,2.388,0,0,0,24.316,13.4ZM10.983,14.668H24.316a1.119,1.119,0,0,1,1.115,1.115V17.9H9.868v-2.12A1.119,1.119,0,0,1,10.983,14.668ZM24.316,28.132H10.983a1.119,1.119,0,0,1-1.115-1.115V19.192H25.431v7.825A1.119,1.119,0,0,1,24.316,28.132Z" transform="translate(0)"/><path class="a" d="M24.173,49.4H21.834a.634.634,0,1,0,0,1.268h2.339a.634.634,0,1,0,0-1.268Z" transform="translate(-9.846 -28.131)"/><path class="a" d="M24.173,62.9H21.834a.634.634,0,1,0,0,1.268h2.339a.634.634,0,1,0,0-1.268Z" transform="translate(-9.846 -38.68)"/><path class="a" d="M44.695,49.4H42.334a.634.634,0,0,0,0,1.268h2.339a.634.634,0,0,0,.634-.634A.616.616,0,0,0,44.695,49.4Z" transform="translate(-25.865 -28.131)"/><path class="a" d="M44.695,62.9H42.334a.634.634,0,0,0,0,1.268h2.339a.634.634,0,0,0,.634-.634A.616.616,0,0,0,44.695,62.9Z" transform="translate(-25.865 -38.68)"/><path class="a" d="M65.273,49.4H62.934a.634.634,0,1,0,0,1.268h2.339a.634.634,0,0,0,0-1.268Z" transform="translate(-41.962 -28.131)"/><path class="a" d="M65.273,62.9H62.934a.634.634,0,1,0,0,1.268h2.339a.634.634,0,0,0,0-1.268Z" transform="translate(-41.962 -38.68)"/><ellipse class="a" cx="0.962" cy="0.962" rx="0.962" ry="0.962" transform="translate(11.726 15.302)"/><ellipse class="a" cx="0.962" cy="0.962" rx="0.962" ry="0.962" transform="translate(21.649 15.302)"/></g></svg>