<svg xmlns="http://www.w3.org/2000/svg" viewBox="0 0 16.5 16.5"><defs><style>.a{fill:#403f4c;stroke:#403f4c;stroke-width:0.5px;}</style></defs><g transform="translate(0.251 0.252)"><path class="a" d="M15.286,6.453c-.3-.045-.61-.088-.918-.128a.09.09,0,0,1-.077-.064,6.493,6.493,0,0,0-.614-1.481.091.091,0,0,1,.009-.1c.189-.246.377-.5.558-.74a.844.844,0,0,0-.082-1.091L13.15,1.836a.844.844,0,0,0-1.091-.082c-.244.181-.493.368-.74.558a.091.091,0,0,1-.1.009,6.506,6.506,0,0,0-1.481-.614.091.091,0,0,1-.064-.077c-.04-.309-.083-.618-.128-.918A.843.843,0,0,0,8.714,0H7.284a.843.843,0,0,0-.83.713c-.045.3-.088.609-.128.918a.09.09,0,0,1-.064.077A6.477,6.477,0,0,0,4.78,2.32a.092.092,0,0,1-.1-.009c-.247-.19-.5-.378-.74-.559a.844.844,0,0,0-1.091.082L1.836,2.847a.844.844,0,0,0-.082,1.091c.181.245.369.494.558.74a.091.091,0,0,1,.009.1A6.493,6.493,0,0,0,1.707,6.26a.091.091,0,0,1-.077.064c-.308.04-.617.083-.918.128A.843.843,0,0,0,0,7.283v1.43a.843.843,0,0,0,.713.83c.3.045.61.088.918.128a.09.09,0,0,1,.077.064,6.493,6.493,0,0,0,.614,1.481.091.091,0,0,1-.009.1c-.19.246-.378.5-.558.74a.844.844,0,0,0,.082,1.091l1.011,1.011a.844.844,0,0,0,1.091.082c.244-.181.493-.368.74-.558a.091.091,0,0,1,.1-.009,6.506,6.506,0,0,0,1.481.614.091.091,0,0,1,.064.077c.04.309.083.618.128.918a.843.843,0,0,0,.83.713h1.43a.843.843,0,0,0,.83-.713c.045-.3.088-.609.128-.918a.091.091,0,0,1,.064-.077,6.477,6.477,0,0,0,1.481-.614.092.092,0,0,1,.1.009c.247.19.5.378.74.558a.844.844,0,0,0,1.091-.082l1.011-1.011a.844.844,0,0,0,.082-1.091c-.181-.245-.369-.494-.558-.74a.091.091,0,0,1-.009-.1,6.5,6.5,0,0,0,.614-1.481.09.09,0,0,1,.077-.064c.308-.04.617-.083.918-.128A.843.843,0,0,0,16,8.713V7.283a.843.843,0,0,0-.713-.83Zm-.034,2.26a.092.092,0,0,1-.077.091c-.3.044-.6.087-.9.126a.836.836,0,0,0-.7.607,5.751,5.751,0,0,1-.543,1.31.837.837,0,0,0,.066.925c.187.243.372.488.55.729a.092.092,0,0,1-.01.118l-1.011,1.011a.092.092,0,0,1-.118.01c-.24-.178-.486-.363-.729-.55a.836.836,0,0,0-.925-.066,5.746,5.746,0,0,1-1.31.543.837.837,0,0,0-.607.7c-.04.3-.082.608-.126.9a.092.092,0,0,1-.091.077H7.283a.092.092,0,0,1-.091-.077c-.044-.3-.087-.6-.126-.9a.836.836,0,0,0-.607-.7,5.758,5.758,0,0,1-1.31-.543.837.837,0,0,0-.925.066c-.243.187-.488.372-.729.55a.091.091,0,0,1-.118-.01L2.364,12.622a.091.091,0,0,1-.01-.118c.178-.241.363-.486.55-.729a.836.836,0,0,0,.066-.925,5.751,5.751,0,0,1-.543-1.31.837.837,0,0,0-.7-.607c-.3-.04-.608-.082-.9-.126a.092.092,0,0,1-.077-.091V7.284a.092.092,0,0,1,.077-.091c.3-.044.6-.087.9-.126a.836.836,0,0,0,.7-.607,5.74,5.74,0,0,1,.543-1.31A.837.837,0,0,0,2.9,4.224c-.186-.242-.371-.487-.55-.729a.092.092,0,0,1,.01-.118L3.375,2.365a.092.092,0,0,1,.118-.01c.24.178.486.363.729.55a.836.836,0,0,0,.925.066,5.742,5.742,0,0,1,1.31-.543.837.837,0,0,0,.607-.7c.04-.3.082-.608.126-.9A.092.092,0,0,1,7.283.746h1.43A.092.092,0,0,1,8.8.823c.044.3.087.6.126.9a.836.836,0,0,0,.607.7,5.758,5.758,0,0,1,1.31.543.837.837,0,0,0,.925-.066c.243-.187.488-.372.729-.55a.092.092,0,0,1,.118.01l1.011,1.011a.092.092,0,0,1,.01.118c-.178.241-.363.486-.55.729a.836.836,0,0,0-.066.925,5.746,5.746,0,0,1,.543,1.31.836.836,0,0,0,.7.607c.3.04.608.082.9.126a.092.092,0,0,1,.077.091v1.43Z"/><path class="a" d="M18.321,14.676a3.645,3.645,0,1,0,3.644,3.645A3.65,3.65,0,0,0,18.321,14.676Zm0,.657a2.987,2.987,0,1,1-2.987,2.987,2.982,2.982,0,0,1,2.987-2.987Z" transform="translate(-10.322 -10.322)"/></g></svg>