<svg xmlns="http://www.w3.org/2000/svg" viewBox="0 0 18.3 15.895"><defs>
<style>.a{fill:#403f4c;stroke:#403f4c;stroke-width:0.3px;}</style></defs>

<g transform="translate(-9.45 -14.85)">
    <g transform="translate(9.6 15)">
    <path class="a" d="M9.6,53.626v.668a1.559,1.559,0,0,0,1.559,1.559h7.4a1.559,1.559,0,0,0,1.559-1.537h5.926A1.559,1.559,0,0,0,27.6,52.757v-.691A4.567,4.567,0,0,0,23.033,47.5H21.652A4.545,4.545,0,0,0,17.8,49.639a4.522,4.522,0,0,0-2.228-.579h-1.4A4.567,4.567,0,0,0,9.6,53.626Zm12.052-5.235h1.4a3.676,3.676,0,0,1,3.653,3.676v.668a.668.668,0,0,1-.668.668H20.115a4.545,4.545,0,0,0-1.6-3.252A3.653,3.653,0,0,1,21.652,48.391ZM14.167,49.95h1.4a3.676,3.676,0,0,1,3.653,3.676v.668a.668.668,0,0,1-.668.668h-7.4a.668.668,0,0,1-.668-.668v-.668a3.676,3.676,0,0,1,3.676-3.676Z" transform="translate(-9.6 -40.26)"/><path class="a" d="M25.16,25.23a3.23,3.23,0,1,0-3.23,3.23A3.23,3.23,0,0,0,25.16,25.23Zm-5.547,0a2.328,2.328,0,1,1-.022,0Z" transform="translate(-16.673 -20.441)"/>
    <path class="a" d="M58.76,18.23a3.23,3.23,0,1,0-3.23,3.23A3.23,3.23,0,0,0,58.76,18.23Zm-5.547,0a2.328,2.328,0,1,1-.022,0Z" transform="translate(-42.788 -15)"/>
    </g>
</g>
</svg>