<svg xmlns="http://www.w3.org/2000/svg" viewBox="0 0 19 15.747"><defs><style>.a{fill:#403f4c;}</style></defs><g transform="translate(9.095 2.914)"><path class="a" d="M19.053,4.606H12.393a.378.378,0,0,1,0-.757h6.659a.378.378,0,1,1,0,.757Z" transform="translate(-12.015 -3.849)"/></g><g transform="translate(9.096 4.92)"><path class="a" d="M16.167,7.257H12.394a.378.378,0,0,1,0-.757h3.773a.378.378,0,0,1,0,.757Z" transform="translate(-12.016 -6.5)"/></g><g transform="translate(9.095 6.927)"><path class="a" d="M17.539,9.908H12.393a.378.378,0,0,1,0-.757h5.145a.378.378,0,0,1,0,.757Z" transform="translate(-12.015 -9.151)"/></g><path class="a" d="M20.055,0H6.663a.455.455,0,0,0-.454.454V1.762c.076,0,.147-.023.223-.023a3.841,3.841,0,0,1,.684.069v-.9H19.6V9.6H9.485a6.535,6.535,0,0,1,.609.444,4.491,4.491,0,0,1,.466.464h9.495a.455.455,0,0,0,.454-.454V.454A.455.455,0,0,0,20.055,0Z" transform="translate(-1.509)"/><path class="a" d="M9.841,16.374a4.28,4.28,0,0,0-1.5-3.055,6.1,6.1,0,0,0-.672-.48A4.332,4.332,0,0,0,5.571,12.3H4.284A4.3,4.3,0,0,0,0,16.584v.611a1.542,1.542,0,0,0,1.54,1.54H8.3a1.549,1.549,0,0,0,1.537-1.518v-.843Zm-1.039.21v.611a.5.5,0,0,1-.5.5H1.54a.5.5,0,0,1-.5-.5v-.611a3.252,3.252,0,0,1,3.247-3.247l.07,0H5.577A3.255,3.255,0,0,1,8.8,16.584Z" transform="translate(0 -2.988)"/><path class="a" d="M5.4,9.686A3.445,3.445,0,1,0,1.954,6.241,3.449,3.449,0,0,0,5.4,9.686Zm0-5.9a2.46,2.46,0,1,1-2.46,2.46A2.463,2.463,0,0,1,5.4,3.782Z" transform="translate(-0.475 -0.68)"/></svg>