<?xml version="1.0" encoding="utf-8"?>
<!-- Generator: Adobe Illustrator 23.0.1, SVG Export Plug-In . SVG Version: 6.00 Build 0)  -->
<svg version="1.1" id="Layer_1" xmlns="http://www.w3.org/2000/svg" xmlns:xlink="http://www.w3.org/1999/xlink" x="0px" y="0px"
	 viewBox="0 0 32 32" style="enable-background:new 0 0 32 32;" xml:space="preserve">
<style type="text/css">
	.st0{fill:#403F4C;}
	.st1{fill:#FFFFFF;}
</style>
<g id="bt_login_google" transform="translate(-1246 -666)">
	<circle id="Ellipse_172" class="st0" cx="1262" cy="682" r="16"/>
	<g>
		<path class="st1" d="M1271.8,680.1h-9.6v4h5.3c-0.5,1.3-1.4,2.4-2.6,3l0,0l0,0c-0.3,0.2-0.6,0.3-0.9,0.4c-3.1,1.2-6.5-0.4-7.7-3.5
			l0,0l0,0c-0.5-1.3-0.5-2.7-0.1-4l0,0l0,0c0.1-0.4,0.3-0.8,0.6-1.2c1.7-2.8,5.4-3.6,8.2-1.9l3.2-2.7c-0.6-0.5-1.2-0.9-1.8-1.2
			c-4.9-2.5-10.9-0.6-13.5,4.3l0,0l0,0c-1.5,2.9-1.5,6.4,0.1,9.3l0,0c0.3,0.5,0.6,1,1,1.5c3.5,4.3,9.8,5,14.1,1.5l0,0
			C1271.1,687.5,1272.5,683.8,1271.8,680.1z"/>
		<path class="st1" d="M1271.8,680.1L1271.8,680.1L1271.8,680.1z"/>
	</g>
</g>
</svg>
