<svg xmlns="http://www.w3.org/2000/svg" viewBox="0 0 32 32"><defs><style>.a{fill:#6e6d77;}.b{fill:#fff;}</style></defs><g transform="translate(-1204 -622)"><circle class="a" cx="16" cy="16" r="16" transform="translate(1204 622)"/><g transform="translate(1211 629.001)"><path class="b" d="M3.81,144.014l-.6,2.234-2.187.046a8.611,8.611,0,0,1-.063-8.027h0l1.947.357.853,1.936a5.13,5.13,0,0,0,.048,3.454Z" transform="translate(0 -133.625)"/><path class="b" d="M269.885,208.176a8.592,8.592,0,0,1-3.064,8.309h0l-2.453-.125-.347-2.167a5.123,5.123,0,0,0,2.2-2.616h-4.6v-3.4h8.257Z" transform="translate(-252.843 -201.186)"/><path class="b" d="M43.461,314.318h0a8.6,8.6,0,0,1-12.953-2.63l2.786-2.28a5.112,5.112,0,0,0,7.367,2.617Z" transform="translate(-29.485 -299.02)"/><path class="b" d="M41.745,1.979l-2.785,2.28a5.112,5.112,0,0,0-7.536,2.676l-2.8-2.293h0A8.6,8.6,0,0,1,41.745,1.979Z" transform="translate(-27.663)"/></g></g></svg>