<?xml version="1.0" encoding="utf-8"?>
<!-- Generator: Adobe Illustrator 22.1.0, SVG Export Plug-In . SVG Version: 6.00 Build 0)  -->
<svg version="1.1" id="Camada_1" xmlns="http://www.w3.org/2000/svg" xmlns:xlink="http://www.w3.org/1999/xlink" x="0px" y="0px"
	 viewBox="0 0 24 24" style="enable-background:new 0 0 24 24;" xml:space="preserve">
<style type="text/css">
	.st0{opacity:0.4;fill:#707070;enable-background:new    ;}
</style>
<g>
	<path class="st0" d="M12,0C5.4,0,0,5.4,0,12c0,6.6,5.4,12,12,12c6.6,0,12-5.4,12-12C24,5.4,18.6,0,12,0z M12,22.5
		C6.2,22.5,1.5,17.8,1.5,12C1.5,6.2,6.2,1.5,12,1.5c5.8,0,10.5,4.7,10.5,10.5C22.5,17.8,17.8,22.5,12,22.5z"/>
	<path class="st0" d="M16.7,7.4l-6.4,6.4l-3-2.9c-0.5-0.5-1.4-0.5-1.9,0s-0.5,1.4,0,1.9l4,3.9C9.6,16.9,10,17,10.3,17
		c0.4,0,0.7-0.1,0.9-0.4l7.4-7.4c0.5-0.5,0.5-1.4,0-1.9C18.1,6.9,17.3,6.9,16.7,7.4z"/>
</g>
</svg>
