<svg id="icon_pricing_world_blue" xmlns="http://www.w3.org/2000/svg" viewBox="0 0 40 40">
  <defs>
    <style>
      .cls-1 {
        fill: #3da8fe;
      }
    </style>
  </defs>
  <path id="Path_215" data-name="Path 215" class="cls-1" d="M38.65,20.99V19.234H33.1a24.341,24.341,0,0,0-1.843-8.654A19.31,19.31,0,0,0,34.241,8L32.962,6.8a18.054,18.054,0,0,1-2.471,2.169C28.115,4.485,24.343,1.582,20.1,1.582s-8.01,2.9-10.387,7.385A17.891,17.891,0,0,1,7.247,6.8L5.968,8A19.3,19.3,0,0,0,8.951,10.58a24.361,24.361,0,0,0-1.843,8.654H1.573V20.99H7.107a24.349,24.349,0,0,0,1.821,8.6,19.358,19.358,0,0,0-3,2.6l1.28,1.2a17.973,17.973,0,0,1,2.476-2.182c2.375,4.511,6.159,7.434,10.413,7.434s8.039-2.923,10.415-7.434a17.965,17.965,0,0,1,2.476,2.182l1.281-1.2a19.4,19.4,0,0,0-3-2.6,24.344,24.344,0,0,0,1.82-8.6ZM31.33,19.234H26.124a57.7,57.7,0,0,0-.387-5.973,19.51,19.51,0,0,0,4.034-1.742A23.1,23.1,0,0,1,31.33,19.234ZM20.1,36.967c-1.226,0-2.839-3.264-3.689-8.78a17.922,17.922,0,0,1,7.378,0C22.944,33.7,21.33,36.967,20.1,36.967Zm0-10.918a19.314,19.314,0,0,0-3.919.4c-.19-1.66-.311-3.487-.339-5.463h8.517c-.029,1.975-.149,3.8-.339,5.463A19.293,19.293,0,0,0,20.1,26.049Zm-4.258-6.815a54.914,54.914,0,0,1,.346-5.53,19.24,19.24,0,0,0,3.912.4,19.249,19.249,0,0,0,3.913-.4,54.917,54.917,0,0,1,.347,5.53ZM20.1,3.256c1.222,0,2.828,3.237,3.68,8.713a17.882,17.882,0,0,1-3.68.382,17.889,17.889,0,0,1-3.68-.382C17.277,6.494,18.883,3.256,20.1,3.256Zm8.943,6.66a17.274,17.274,0,0,1-3.55,1.6,23.07,23.07,0,0,0-2.306-7.6A12.422,12.422,0,0,1,29.046,9.916Zm-12.028-6a23.064,23.064,0,0,0-2.305,7.6,17.282,17.282,0,0,1-3.55-1.6A12.426,12.426,0,0,1,17.017,3.916Zm-6.58,7.6a19.528,19.528,0,0,0,4.033,1.741,57.944,57.944,0,0,0-.387,5.973H8.877A23.092,23.092,0,0,1,10.438,11.52Zm-1.56,9.47h5.205a57.827,57.827,0,0,0,.379,5.907,19.517,19.517,0,0,0-4.048,1.752A23.151,23.151,0,0,1,8.877,20.99Zm2.257,9.263A17.343,17.343,0,0,1,14.7,28.636a23.2,23.2,0,0,0,2.316,7.671A12.454,12.454,0,0,1,11.134,30.253ZM23.19,36.307a23.173,23.173,0,0,0,2.316-7.671,17.223,17.223,0,0,1,3.567,1.617A12.451,12.451,0,0,1,23.19,36.307Zm6.6-7.658A19.53,19.53,0,0,0,25.746,26.9a57.57,57.57,0,0,0,.378-5.907H31.33A23.142,23.142,0,0,1,29.793,28.649Z" transform="translate(-0.111 -0.112)"/>
  <g id="Group_403" data-name="Group 403">
    <path id="Path_216" data-name="Path 216" class="cls-1" d="M20,40A20,20,0,1,1,40,20,20.023,20.023,0,0,1,20,40ZM20,1.991A18.008,18.008,0,1,0,38.008,20,18.028,18.028,0,0,0,20,1.991Z"/>
  </g>
</svg>
