<?xml version="1.0" encoding="utf-8"?>
<!-- Generator: Adobe Illustrator 22.1.0, SVG Export Plug-In . SVG Version: 6.00 Build 0)  -->
<svg version="1.1" id="Camada_1" xmlns="http://www.w3.org/2000/svg" xmlns:xlink="http://www.w3.org/1999/xlink" x="0px" y="0px"
	 viewBox="0 0 20.7 25.5" style="enable-background:new 0 0 20.7 25.5;" xml:space="preserve">
<style type="text/css">
	.st0{opacity:0.4;}
	.st1{fill:#6D6A75;}
</style>
<g class="st0">
	<path class="st1" d="M13.8,5.2C13.8,5.2,13.8,5.2,13.8,5.2H4.6c-0.3,0-0.6,0.2-0.6,0.6s0.2,0.6,0.6,0.6h9.2c0.3,0,0.6-0.2,0.6-0.6
		S14.2,5.2,13.8,5.2z"/>
	<path class="st1" d="M13.8,7.8H4.6C4.3,7.8,4.1,8,4.1,8.3s0.2,0.6,0.6,0.6h9.2c0.3,0,0.6-0.2,0.6-0.6S14.2,7.8,13.8,7.8z"/>
	<path class="st1" d="M13.8,10.3H4.6c-0.3,0-0.6,0.2-0.6,0.6c0,0.3,0.2,0.6,0.6,0.6h9.2c0.3,0,0.5-0.3,0.6-0.6
		C14.4,10.6,14.1,10.3,13.8,10.3z"/>
	<path class="st1" d="M10.9,14c0.3,0,0.6-0.2,0.6-0.6s-0.2-0.6-0.6-0.6H4.6c-0.3,0-0.6,0.2-0.6,0.6S4.3,14,4.6,14H10.9z"/>
	<path class="st1" d="M1.1,23V1.2h16.6V14c0.1,0,0.2,0,0.3,0c0.3,0,0.6,0,0.8,0.1V0.6c0-0.3-0.3-0.5-0.6-0.6H0.6C0.3,0,0,0.3,0,0.6
		v22.9C0,23.7,0.3,24,0.6,24h13c-0.3-0.3-0.5-0.7-0.8-1H1.1z"/>
	<path class="st1" d="M20.2,20.5c-0.3-0.3-0.9-0.6-1.6-0.8v-2.4c0.2,0.1,0.5,0.1,0.7,0.2c0.2,0.1,0.4,0.2,0.5,0.4
		c0.1,0.1,0.2,0.1,0.3,0.1c0.1,0,0.3-0.1,0.4-0.2s0.1-0.2,0.1-0.4c0-0.2-0.1-0.3-0.3-0.5c-0.2-0.2-0.4-0.4-0.7-0.5
		c-0.3-0.1-0.6-0.2-1-0.3v-0.6c0-0.2,0-0.3-0.1-0.4c-0.1-0.1-0.2-0.1-0.4-0.1c-0.2,0-0.3,0-0.4,0.1s-0.2,0.2-0.2,0.4v0.6
		c-0.7,0.1-1.2,0.3-1.6,0.7c-0.4,0.4-0.6,0.9-0.6,1.4c0,0.6,0.2,1.1,0.6,1.4c0.4,0.3,0.9,0.6,1.6,0.8v2.5c-0.3,0-0.6-0.1-0.8-0.3
		c-0.3-0.1-0.5-0.3-0.7-0.5c-0.1-0.1-0.2-0.1-0.3-0.1c-0.1,0-0.3,0.1-0.4,0.2s-0.2,0.2-0.2,0.4c0,0.2,0.1,0.3,0.2,0.5
		c0.3,0.3,0.6,0.5,1,0.7c0.3,0.1,0.7,0.2,1.2,0.3V25c0,0.2,0,0.3,0.1,0.4c0.1,0.1,0.2,0.1,0.4,0.1c0.2,0,0.3,0,0.4-0.1
		c0.1-0.1,0.1-0.2,0.1-0.4v-0.9c0.6-0.1,1.1-0.4,1.5-0.7s0.6-0.8,0.6-1.4C20.7,21.3,20.6,20.8,20.2,20.5z M17.6,19.5
		c-0.4-0.1-0.6-0.3-0.8-0.4c-0.2-0.2-0.3-0.4-0.3-0.7c0-0.3,0.1-0.5,0.3-0.7c0.2-0.2,0.5-0.3,0.8-0.4V19.5z M19.4,22.6
		c-0.2,0.2-0.4,0.3-0.7,0.4v-2.2c0.3,0.1,0.6,0.3,0.8,0.5c0.2,0.2,0.3,0.4,0.3,0.7C19.7,22.2,19.6,22.4,19.4,22.6z"/>
</g>
</svg>
