<?xml version="1.0" encoding="utf-8"?>
<!-- Generator: Adobe Illustrator 22.1.0, SVG Export Plug-In . SVG Version: 6.00 Build 0)  -->
<svg version="1.1" id="Camada_1" xmlns="http://www.w3.org/2000/svg" xmlns:xlink="http://www.w3.org/1999/xlink" x="0px" y="0px"
	 viewBox="0 0 18.8 24" style="enable-background:new 0 0 18.8 24;" xml:space="preserve">
<style type="text/css">
	.st0{fill:#B4B2B7;}
</style>
<g>
	<path class="st0" d="M18.3,15.9c0.3,0,0.5-0.3,0.6-0.6V0.6c0-0.3-0.3-0.5-0.6-0.6H0.6C0.3,0,0,0.3,0,0.6v22.9C0,23.7,0.3,24,0.6,24
		h13.3c0.1,0,0.1,0,0.2,0c0.1,0,0.1-0.1,0.2-0.1l4.4-4.4c0-0.1,0.1-0.1,0.1-0.2c0-0.1,0-0.1,0-0.2c0,0,0-0.1,0-0.2
		c-0.1-0.1-0.1-0.3-0.3-0.3c-0.1,0-0.1,0-0.2,0h-4.4c-0.3,0-0.5,0.3-0.6,0.6V23H1.1V1.2h16.6v14.1C17.7,15.6,18,15.9,18.3,15.9z
		 M14.4,19.6h2.5l-2.5,2.5V19.6z"/>
	<path class="st0" d="M13.8,5.2C13.8,5.2,13.8,5.2,13.8,5.2H4.6c-0.3,0-0.6,0.2-0.6,0.6s0.2,0.6,0.6,0.6h9.2c0.3,0,0.6-0.2,0.6-0.6
		S14.2,5.2,13.8,5.2z"/>
	<path class="st0" d="M13.8,7.8H4.6C4.3,7.8,4.1,8,4.1,8.3s0.2,0.6,0.6,0.6h9.2c0.3,0,0.6-0.2,0.6-0.6S14.2,7.8,13.8,7.8z"/>
	<path class="st0" d="M14.4,10.9c0-0.3-0.3-0.5-0.6-0.6H4.6c-0.3,0-0.6,0.2-0.6,0.6c0,0.3,0.2,0.6,0.6,0.6h9.2
		C14.1,11.4,14.4,11.2,14.4,10.9z"/>
	<path class="st0" d="M4.6,12.9c-0.3,0-0.6,0.2-0.6,0.6S4.3,14,4.6,14h6.3c0.3,0,0.6-0.2,0.6-0.6s-0.2-0.6-0.6-0.6H4.6z"/>
</g>
</svg>
